<svg width="19" height="19" viewBox="0 0 19 19" fill="none" xmlns="http://www.w3.org/2000/svg">
<path d="M1.98242 9.10649C1.98242 12.1625 3.75843 14.8036 6.33378 16.0551L2.65087 5.96436C2.22247 6.92457 1.98242 7.98718 1.98242 9.10649Z" fill="#464342"/>
<path d="M14.9149 8.71686C14.9149 7.76267 14.5722 7.10186 14.2782 6.58752C13.8869 5.95155 13.52 5.41297 13.52 4.77699C13.52 4.06726 14.0583 3.4066 14.8165 3.4066C14.8507 3.4066 14.8832 3.41086 14.9166 3.41277C13.5429 2.15433 11.7129 1.38599 9.70282 1.38599C7.00553 1.38599 4.63248 2.76989 3.25195 4.86602C3.43309 4.87145 3.60381 4.87527 3.74881 4.87527C4.55638 4.87527 5.80645 4.77728 5.80645 4.77728C6.22264 4.75275 6.27171 5.36405 5.85595 5.41326C5.85595 5.41326 5.4377 5.46248 4.97228 5.48687L7.78387 13.8498L9.4735 8.78238L8.27059 5.48657C7.85483 5.46218 7.46096 5.41297 7.46096 5.41297C7.04491 5.38858 7.09368 4.75246 7.50973 4.77699C7.50973 4.77699 8.78477 4.87498 9.54342 4.87498C10.3508 4.87498 11.6011 4.77699 11.6011 4.77699C12.0176 4.75246 12.0665 5.36375 11.6506 5.41297C11.6506 5.41297 11.2314 5.46218 10.7669 5.48657L13.557 13.7862L14.3271 11.2127C14.6609 10.1448 14.9149 9.37781 14.9149 8.71686Z" fill="#464342"/>
<path d="M9.83896 9.78174L7.52246 16.5131C8.21412 16.7164 8.94559 16.8276 9.7035 16.8276C10.6026 16.8276 11.4648 16.6722 12.2674 16.3899C12.2467 16.3569 12.2279 16.3218 12.2125 16.2836L9.83896 9.78174Z" fill="#464342"/>
<path d="M16.4774 5.40234C16.5106 5.64827 16.5294 5.91227 16.5294 6.19625C16.5294 6.97973 16.3831 7.86046 15.9423 8.96171L13.584 15.7803C15.8793 14.4418 17.4232 11.955 17.4232 9.10671C17.4234 7.76438 17.0805 6.50212 16.4774 5.40234Z" fill="#464342"/>
<path d="M9.7032 0.106689C4.74069 0.106689 0.703125 4.14396 0.703125 9.10647C0.703125 14.0696 4.74069 18.1067 9.7032 18.1067C14.6656 18.1067 18.7037 14.0696 18.7037 9.10647C18.7036 4.14396 14.6656 0.106689 9.7032 0.106689ZM9.7032 17.6942C4.96825 17.6942 1.1158 13.8417 1.1158 9.10647C1.1158 4.37152 4.9681 0.519363 9.7032 0.519363C14.438 0.519363 18.2902 4.37152 18.2902 9.10647C18.2902 13.8417 14.438 17.6942 9.7032 17.6942Z" fill="#464342"/>
</svg>
