<svg width="18" height="18" viewBox="0 0 18 18" fill="none" xmlns="http://www.w3.org/2000/svg">
<g clip-path="url(#clip0_1416_25028)">
<path d="M3.82878 0.606689H14.8079C16.4725 0.606689 17.8184 1.98703 17.8184 3.6943V14.5191C17.8184 16.2263 16.4725 17.6067 14.8079 17.6067H3.82878C2.16419 17.6067 0.818359 16.2263 0.818359 14.5191V3.6943C0.818359 1.98703 2.16419 0.606689 3.82878 0.606689Z" fill="#470137"/>
<path d="M9.7577 5.07455L7.6327 8.67071L9.89937 12.4848C9.91354 12.5139 9.92062 12.5429 9.91354 12.572C9.90645 12.601 9.87812 12.5793 9.83562 12.5865H8.21354C8.1002 12.5865 8.02229 12.5793 7.9727 12.5066C7.82395 12.2015 7.66812 11.9036 7.51937 11.5985C7.37062 11.3006 7.2077 10.9955 7.0377 10.6831C6.8677 10.3707 6.6977 10.0583 6.5277 9.73865H6.51354C6.36479 10.051 6.20187 10.3634 6.03895 10.6758C5.87603 10.9882 5.71312 11.3006 5.55728 11.6057C5.39437 11.9109 5.23145 12.2233 5.06853 12.5211C5.0402 12.5938 4.98353 12.601 4.90562 12.601H3.34728C3.31895 12.601 3.2977 12.6156 3.2977 12.5793C3.29062 12.5502 3.2977 12.5211 3.31187 12.4993L5.51478 8.79421L3.36853 5.06729C3.34728 5.03823 3.3402 5.00917 3.35437 4.99464C3.36853 4.97284 3.39687 4.96558 3.4252 4.96558H5.03312C5.06853 4.96558 5.10395 4.97284 5.13228 4.98011C5.16062 4.99464 5.18187 5.01643 5.20312 5.04549C5.3377 5.35788 5.49353 5.67028 5.65645 5.98267C5.82645 6.29506 5.98937 6.60019 6.16645 6.90532C6.33645 7.21045 6.49228 7.51558 6.64103 7.82797H6.6552C6.80395 7.50831 6.95979 7.19592 7.11562 6.89079C7.27145 6.58566 7.43437 6.28053 7.59729 5.97541C7.7602 5.67028 7.91604 5.35788 8.07187 5.06002C8.07895 5.03096 8.09312 5.0019 8.11437 4.98737C8.1427 4.97284 8.17104 4.96558 8.20645 4.97284H9.70104C9.73645 4.96558 9.77187 4.98737 9.77895 5.0237C9.78604 5.03096 9.77187 5.06002 9.7577 5.07455Z" fill="#FF61F6"/>
<path d="M13.0302 12.7392C12.506 12.7465 11.9819 12.6375 11.5073 12.4123C11.061 12.2016 10.6927 11.8529 10.4377 11.4242C10.1756 10.9811 10.0481 10.429 10.0481 9.76784C10.041 9.23023 10.1756 8.69989 10.4377 8.23493C10.7069 7.76271 11.0965 7.3704 11.564 7.10886C12.0598 6.82553 12.6548 6.6875 13.356 6.6875C13.3915 6.6875 13.441 6.6875 13.5048 6.69476C13.5685 6.70203 13.6394 6.70203 13.7244 6.70929V4.41356C13.7244 4.36271 13.7456 4.33365 13.7952 4.33365H15.2331C15.2685 4.32638 15.2969 4.35544 15.304 4.3845C15.304 4.39177 15.304 4.39903 15.304 4.39903V11.3153C15.304 11.446 15.311 11.5913 15.3181 11.7512C15.3323 11.9037 15.3394 12.049 15.3465 12.1725C15.3465 12.2234 15.3252 12.267 15.2756 12.2888C14.9073 12.4486 14.5177 12.5648 14.121 12.6375C13.7598 12.7029 13.3985 12.7392 13.0302 12.7392ZM13.7244 11.2862V8.08963C13.6606 8.0751 13.5969 8.06057 13.5331 8.05331C13.4552 8.04604 13.3773 8.03878 13.2994 8.03878C13.0231 8.03878 12.7469 8.0969 12.499 8.22767C12.2581 8.35117 12.0527 8.5328 11.8969 8.76527C11.741 8.99775 11.6631 9.31015 11.6631 9.68792C11.656 9.9422 11.6985 10.1965 11.7835 10.4362C11.8544 10.6324 11.9606 10.8067 12.1023 10.952C12.2369 11.0828 12.3998 11.1845 12.584 11.2426C12.7752 11.308 12.9735 11.3371 13.1719 11.3371C13.2781 11.3371 13.3773 11.3298 13.4694 11.3225C13.5615 11.3298 13.6394 11.3153 13.7244 11.2862Z" fill="#FF61F6"/>
</g>
<defs>
<clipPath id="clip0_1416_25028">
<rect width="17" height="17" fill="white" transform="translate(0.818359 0.606689)"/>
</clipPath>
</defs>
</svg>
