<svg width="25" height="25" viewBox="0 0 25 25" fill="none" xmlns="http://www.w3.org/2000/svg">
<rect x="0.42627" y="0.181976" width="24" height="24" rx="1" fill="white"/>
<g clip-path="url(#clip0_3775_5487)">
<path d="M20.9984 12.2923C20.9984 12.2578 20.9973 12.2233 20.9951 12.1888C20.9951 12.1641 20.9932 12.1393 20.9921 12.1146C20.9902 12.0673 20.9875 12.0203 20.9848 11.9733C20.9848 11.951 20.9818 11.9287 20.9804 11.9067C20.9804 11.8936 20.9785 11.8795 20.9774 11.8675C20.9758 11.8422 20.9736 11.8172 20.9715 11.7922C20.9715 11.7849 20.9715 11.7776 20.9698 11.7702C20.9671 11.7387 20.9641 11.7069 20.9611 11.6754H13.9653C13.9916 11.4579 14.0281 11.2435 14.074 11.032C14.1088 10.8738 14.149 10.7178 14.1944 10.5637C14.2094 10.5131 14.2251 10.4629 14.2412 10.4126C14.2485 10.3889 14.2558 10.3653 14.264 10.3416C14.2566 10.3639 14.2493 10.3865 14.2422 10.409C14.2542 10.3723 14.2662 10.3359 14.2787 10.3003C14.2884 10.2718 14.2982 10.2432 14.3083 10.215C14.311 10.2068 14.314 10.1987 14.317 10.1908C14.3224 10.1753 14.3281 10.1601 14.3338 10.1449C14.3395 10.1296 14.342 10.1223 14.3463 10.1109C14.3491 10.1041 14.3515 10.097 14.3539 10.0905C14.3564 10.084 14.3594 10.0766 14.3618 10.0698L14.3675 10.0549C14.3779 10.0277 14.3885 10.0005 14.3993 9.97335C14.4137 9.93747 14.4282 9.90186 14.4431 9.86626C14.458 9.83065 14.4733 9.79532 14.4885 9.76026C14.5037 9.72519 14.5197 9.69013 14.5358 9.65507C14.5518 9.62001 14.5681 9.58549 14.5847 9.55097C14.5847 9.55043 14.5847 9.54961 14.5847 9.54907C14.5999 9.51699 14.6157 9.48519 14.6315 9.45339C14.6328 9.45013 14.6344 9.44714 14.6361 9.44415C14.6701 9.37702 14.7051 9.31043 14.7407 9.24438C14.7565 9.21557 14.7722 9.18703 14.7883 9.15849C14.7907 9.1536 14.7934 9.14871 14.7964 9.14408C14.8111 9.1169 14.8261 9.09217 14.8413 9.06635C14.8625 9.02966 14.884 8.99324 14.9062 8.95763C14.9081 8.9541 14.9103 8.95084 14.9125 8.9473C14.9326 8.91469 14.9527 8.88234 14.9731 8.85027L14.9459 8.89131C14.9595 8.86902 14.9731 8.84701 14.9881 8.82499C14.993 8.81738 14.9978 8.80977 15.003 8.80216L15.0106 8.7902C15.0182 8.77824 15.0261 8.76628 15.0343 8.75432C15.0508 8.72905 15.0677 8.70377 15.0845 8.67876L15.0976 8.65947L15.1299 8.61272C15.1362 8.60375 15.1424 8.59451 15.149 8.58554C15.1555 8.57657 15.1579 8.57249 15.1628 8.56597L15.1797 8.54232L15.2204 8.48579L15.2335 8.46785L15.2797 8.40588C15.2862 8.39718 15.2927 8.38821 15.2995 8.3787C15.3221 8.34934 15.3444 8.32026 15.3672 8.29118C15.4007 8.24823 15.4349 8.20583 15.47 8.1637C15.505 8.12157 15.5401 8.07999 15.5757 8.03867C15.5931 8.01802 15.611 7.99763 15.6301 7.97725L15.6844 7.91636C15.757 7.83537 15.8323 7.75655 15.9103 7.67963C15.9682 7.62146 16.0272 7.56466 16.0869 7.50921L16.147 7.45485L16.2079 7.40049L16.2693 7.34613L16.3269 7.29693C16.3506 7.27682 16.3745 7.25671 16.3987 7.23686C16.4387 7.20398 16.4792 7.17136 16.5199 7.13902C16.5213 7.1382 16.5226 7.13739 16.5237 7.1363C16.5444 7.11972 16.5653 7.10368 16.5865 7.08765C16.6227 7.05938 16.6596 7.03166 16.6974 7.00448L16.733 6.9773L16.7749 6.94713C16.8447 6.89739 16.9157 6.84901 16.9874 6.80144L17.0217 6.77888L17.0562 6.75659L17.0736 6.74545L17.1258 6.71283C17.1491 6.69816 17.1722 6.68375 17.1959 6.66962C17.2247 6.65195 17.2541 6.63456 17.2834 6.61743C17.3005 6.60683 17.3177 6.59678 17.3351 6.58699L17.3601 6.57286C17.3799 6.56144 17.4 6.5503 17.4201 6.53915C17.4402 6.52801 17.4609 6.51632 17.4813 6.50545L17.5539 6.46658C17.578 6.45354 17.6025 6.4394 17.6272 6.42853L17.6669 6.40842C17.7555 6.36357 17.8452 6.32063 17.936 6.28013L18.005 6.24942C18.0627 6.22414 18.1208 6.19968 18.1793 6.17657L18.1611 6.15999L18.1537 6.15347C18.1328 6.13472 18.1113 6.11596 18.0901 6.09748L18.0135 6.03143C17.9675 5.99229 17.9211 5.9537 17.874 5.91537L17.811 5.86455C17.7898 5.84742 17.7688 5.83084 17.7476 5.81426L17.7411 5.8091L17.7365 5.80529C17.7134 5.78708 17.6903 5.76915 17.6669 5.75093L17.6142 5.71098L17.5973 5.69848L17.5884 5.69195C17.5541 5.66477 17.5193 5.64086 17.4848 5.61558L17.4541 5.59329C17.4269 5.57318 17.3997 5.55279 17.3704 5.53295C17.3312 5.50577 17.2921 5.47859 17.2524 5.45141L17.1763 5.40086L17.1456 5.38074L17.1391 5.37667L17.1472 5.38183L17.1391 5.37667C17.1116 5.35846 17.0845 5.34079 17.0575 5.32367C17.0366 5.31035 17.0157 5.29649 16.9945 5.28398L16.9907 5.28154L16.9833 5.27692L16.9521 5.25735L16.8803 5.21359C16.8532 5.19755 16.826 5.18151 16.8004 5.16602L16.7336 5.12688L16.7289 5.12444L16.6425 5.07524L16.5525 5.02577C16.5224 5.00946 16.4922 4.99316 16.4618 4.97712C16.4313 4.96108 16.4011 4.94532 16.3704 4.92983L16.2854 4.88634L16.2718 4.87982C16.2435 4.86568 16.2152 4.85182 16.187 4.83823C16.125 4.80833 16.0628 4.77925 16 4.75098L15.951 4.72924C15.9279 4.71837 15.9048 4.70831 15.8815 4.69853L15.8317 4.67705L15.795 4.66156L15.7135 4.6284C15.6496 4.60204 15.5855 4.57649 15.5205 4.5523C15.4963 4.54306 15.4719 4.53381 15.4477 4.52512L15.4115 4.51153C15.3903 4.50392 15.3688 4.49603 15.3474 4.4887C15.3259 4.48136 15.3085 4.47456 15.2892 4.46831L15.2419 4.45173C15.2204 4.44439 15.199 4.43705 15.1772 4.43026C15.1278 4.41368 15.078 4.39764 15.028 4.38215L14.9563 4.36041L14.9114 4.34682C14.8842 4.33893 14.8587 4.33132 14.832 4.32399L14.8217 4.321C14.7945 4.31284 14.7655 4.30523 14.7372 4.29735C14.7 4.28729 14.6624 4.27724 14.6247 4.26772C14.5869 4.25821 14.5567 4.25033 14.5227 4.24217L14.42 4.21744L14.3303 4.19733C14.2993 4.19026 14.2681 4.18374 14.2368 4.17721L14.1925 4.16852C14.1653 4.16281 14.1381 4.15737 14.1091 4.15221C14.0449 4.13971 13.9805 4.12829 13.9158 4.11742L13.8835 4.11198L13.8019 4.09921L13.7848 4.09622L13.6932 4.0829H13.6856L13.5858 4.06958C13.5182 4.06115 13.4502 4.05327 13.3825 4.04621L13.3265 4.04077L13.2507 4.0337L13.1646 4.02555L13.1151 4.02202C13.0781 4.0193 13.0412 4.01685 13.0039 4.01468L12.9362 4.01114L12.8433 4.00679H12.8213L12.7397 4.00408H12.7068C12.6748 4.00408 12.6427 4.00408 12.6104 4.00245C12.578 4.00082 12.5372 4.00245 12.5016 4.00245C12.466 4.00245 12.4329 4 12.3986 4H12.3562C12.3092 4 12.2624 4.0019 12.2157 4.00353L12.154 4.00707L12.0643 4.01114C12.0371 4.0125 12.0099 4.01386 11.9828 4.01576L11.9265 4.0193L11.8295 4.02718L11.7384 4.03479L11.6648 4.04077C11.6436 4.04267 11.6224 4.04485 11.6012 4.04729C11.5759 4.04974 11.5503 4.05246 11.5251 4.05545L11.4286 4.06713C11.3595 4.07583 11.291 4.08535 11.2225 4.09431L11.1527 4.10519C11.1005 4.11334 11.0486 4.12231 10.9969 4.13237C10.9622 4.13835 10.9274 4.14487 10.8926 4.15166C10.8619 4.15737 10.8314 4.16335 10.801 4.1696L10.7754 4.17477L10.6849 4.19407C10.6531 4.20086 10.6216 4.20793 10.5898 4.21527L10.5759 4.21853C10.4751 4.2419 10.3756 4.26691 10.2769 4.29382C10.2432 4.30306 10.2095 4.3123 10.1758 4.321L10.0753 4.35008L9.97525 4.38052C9.91192 4.40036 9.84859 4.42075 9.78499 4.44195L9.76624 4.4482L9.67736 4.47891L9.57951 4.51425C9.51618 4.53735 9.45258 4.56127 9.38925 4.586L9.37729 4.59062C9.28325 4.62786 9.19002 4.66673 9.09734 4.70722C9.05059 4.72761 9.00411 4.74854 8.9579 4.76974L8.91659 4.78876L8.88941 4.80181C8.87963 4.80616 8.86984 4.81078 8.86006 4.81567L8.84266 4.82383L8.79809 4.8453L8.79428 4.8472L8.74318 4.87221H8.74128L8.71818 4.88335L8.69507 4.89504L8.66789 4.90917L8.64071 4.92358C8.61054 4.9388 8.58037 4.95456 8.5502 4.97033L8.53906 4.97848L8.44855 5.02713C8.38821 5.05975 8.32842 5.09318 8.26916 5.12743C8.23954 5.14428 8.20991 5.16167 8.18056 5.17907C8.1512 5.19646 8.12185 5.21413 8.09249 5.2318L8.00524 5.28616C7.97616 5.3041 7.94735 5.32231 7.91854 5.34052L7.91528 5.34242L7.87397 5.3696L7.83292 5.39678L7.74758 5.45359C7.69104 5.49191 7.63505 5.53078 7.57961 5.57019C7.52525 5.6096 7.46898 5.64983 7.41435 5.6906L7.33281 5.75229C7.29204 5.78355 7.25127 5.81481 7.21186 5.84661C7.17245 5.87841 7.13222 5.91075 7.09308 5.9431C7.0659 5.96457 7.04063 5.98659 7.01481 6.00833L6.94305 6.06948L6.93028 6.08063L6.86042 6.14205C6.82237 6.17603 6.78459 6.21001 6.74708 6.24452C6.70957 6.27796 6.67261 6.3122 6.63646 6.34726C6.61173 6.37064 6.58726 6.39429 6.56307 6.41793L6.48969 6.48969L6.41902 6.56226C6.30052 6.68375 6.18554 6.80878 6.07383 6.93761C6.00724 7.01453 5.94174 7.09308 5.87759 7.17245C5.85884 7.19555 5.84036 7.21893 5.82188 7.2423C5.80339 7.26568 5.78382 7.29095 5.76507 7.31569L5.75528 7.32819L5.73979 7.3483L5.72865 7.36298L5.7262 7.36651C5.72022 7.37412 5.71424 7.38201 5.70853 7.38989L5.6925 7.41082L5.66668 7.44588L5.65934 7.45566L5.6221 7.50622L5.61612 7.51437L5.5865 7.55596L5.58269 7.56085L5.57943 7.56547L5.56964 7.57933L5.55279 7.60325L5.53893 7.62228L5.50224 7.67528C5.48512 7.69974 5.46854 7.72447 5.45168 7.74921C5.43483 7.77394 5.41336 7.8052 5.39488 7.83238L5.35329 7.89625C5.33345 7.92697 5.31388 7.95795 5.29431 7.98921L5.27556 8.0191L5.27175 8.02536C5.25164 8.0577 5.2318 8.09032 5.21223 8.12293C5.20217 8.13951 5.19239 8.15582 5.18287 8.17213C5.17336 8.18844 5.16358 8.20529 5.15379 8.2216V8.22377C5.14591 8.23709 5.13803 8.25095 5.13042 8.26427C5.11302 8.29417 5.0959 8.32434 5.07905 8.35451C5.07905 8.35532 5.07905 8.35587 5.07905 8.35668C5.04344 8.41784 5.00974 8.47845 4.97848 8.53906C4.94668 8.59967 4.91515 8.66082 4.88471 8.72225C4.86949 8.75324 4.85427 8.78395 4.83932 8.81494C4.80942 8.87691 4.78034 8.93915 4.75207 9.00193C4.74065 9.02721 4.72951 9.05249 4.71837 9.07777C4.7007 9.11718 4.68358 9.15713 4.66673 9.19709C4.65422 9.22698 4.64172 9.25715 4.62949 9.28705C4.61726 9.31695 4.6072 9.34141 4.59606 9.36859C4.59252 9.37729 4.58926 9.38626 4.58573 9.39577C4.56779 9.44198 4.54985 9.48846 4.53137 9.53493C4.51289 9.58141 4.49712 9.62816 4.48054 9.67518C4.46913 9.7078 4.45771 9.74069 4.44657 9.77357C4.41884 9.85593 4.39221 9.93883 4.36666 10.0223C4.34111 10.1057 4.31692 10.1894 4.29436 10.274C4.29436 10.2745 4.29436 10.275 4.29436 10.2756C4.28294 10.3177 4.2718 10.3598 4.2612 10.4022C4.25359 10.4324 4.24625 10.4623 4.23891 10.4925V10.4979C4.23755 10.5039 4.23619 10.5102 4.23456 10.5164L4.22451 10.5504C4.22125 10.5645 4.21798 10.5789 4.21445 10.5933C4.21092 10.6077 4.20983 10.6148 4.20738 10.6254C4.20738 10.6308 4.20494 10.636 4.20385 10.6414L4.19814 10.6664C4.19814 10.673 4.19542 10.6798 4.19379 10.6863C4.18673 10.7194 4.17966 10.7523 4.17286 10.7855C4.16226 10.8374 4.15221 10.8893 4.14242 10.9418C4.13291 10.994 4.12367 11.0461 4.11524 11.0989L4.09839 11.2027C4.09839 11.206 4.09839 11.2089 4.09703 11.2122C4.09241 11.244 4.08752 11.2761 4.0829 11.3079C4.0829 11.3103 4.0829 11.3125 4.0829 11.315C4.07801 11.3495 4.07339 11.384 4.06904 11.4188C4.06469 11.4536 4.06034 11.4897 4.05626 11.5253C4.05219 11.5609 4.04892 11.5903 4.04566 11.6226C4.04566 11.6289 4.04566 11.6354 4.04376 11.6417C4.03696 11.7101 4.03071 11.7776 4.02555 11.8474C4.02283 11.8825 4.02038 11.9178 4.01821 11.9531V11.9613C4.00598 12.1393 4 12.3193 4 12.5005C4 12.5707 4 12.6408 4.00245 12.7104V12.725C4.00245 12.7585 4.00435 12.7916 4.00544 12.8248V12.834C4.00544 12.8688 4.00815 12.9033 4.01006 12.9379C4.01196 12.9724 4.01359 13.0072 4.01576 13.0414C4.01794 13.0757 4.02093 13.117 4.02365 13.1545C4.02908 13.2235 4.03506 13.2923 4.04186 13.3608L4.04349 13.3766C4.04702 13.41 4.05055 13.4434 4.05436 13.4766C4.05817 13.5097 4.06279 13.5478 4.06713 13.5831C4.07148 13.6185 4.07638 13.6541 4.08127 13.6894C4.08616 13.7247 4.09214 13.7644 4.09785 13.8019L4.11008 13.8791C4.1185 13.9308 4.12747 13.9819 4.13726 14.0329C4.14188 14.0585 4.14677 14.084 4.15166 14.1096C4.15656 14.1351 4.16254 14.1667 4.16852 14.1952L4.17585 14.2316C4.18183 14.2602 4.18781 14.2887 4.19407 14.3173C4.2014 14.3515 4.20929 14.386 4.21717 14.4203C4.23782 14.5108 4.26011 14.6002 4.28376 14.6885C4.29599 14.735 4.30876 14.7812 4.32208 14.8277C4.32942 14.8549 4.3373 14.8821 4.34519 14.9076C4.35307 14.9332 4.36231 14.9655 4.37237 14.9943C4.3778 15.0125 4.38351 15.0305 4.38949 15.0487C4.39737 15.0737 4.40525 15.0987 4.41341 15.1237C4.42156 15.1487 4.43107 15.178 4.44059 15.2052C4.4501 15.2324 4.45662 15.2531 4.46505 15.277C4.47348 15.3009 4.48326 15.3292 4.49223 15.355C4.5012 15.3808 4.50827 15.3996 4.51642 15.4218C4.52838 15.4545 4.54034 15.4868 4.55284 15.5192L4.57323 15.5735C4.58084 15.5934 4.58845 15.6132 4.5966 15.633C4.6072 15.6602 4.6178 15.6874 4.62895 15.7146C4.64199 15.7464 4.65613 15.7782 4.66863 15.81C4.67977 15.8369 4.69119 15.8635 4.70287 15.8899C4.72027 15.9301 4.73794 15.9698 4.75723 16.0097C4.78306 16.0668 4.80969 16.1236 4.8366 16.1802C4.86759 16.2443 4.89911 16.3079 4.93173 16.3704C4.94206 16.3911 4.95293 16.4115 4.96353 16.4321C4.97413 16.4528 4.98147 16.4664 4.99071 16.4835C5.00294 16.5066 5.01517 16.5294 5.02768 16.5523C5.04317 16.5811 5.0592 16.6099 5.07524 16.6384C5.07687 16.6417 5.0785 16.6449 5.0804 16.6479C5.09617 16.6751 5.11193 16.7039 5.12797 16.7317C5.14401 16.7594 5.16222 16.7909 5.17961 16.8203C5.19701 16.8496 5.2144 16.879 5.23234 16.9083C5.2655 16.9627 5.2992 17.017 5.33345 17.0714C5.35764 17.1095 5.38237 17.1475 5.40765 17.1853C5.41717 17.2 5.42695 17.2146 5.43673 17.229C5.44652 17.2435 5.46011 17.2641 5.47207 17.2815L5.51121 17.3383C5.53051 17.3655 5.55008 17.3943 5.56992 17.422C5.61286 17.4826 5.65662 17.5424 5.7012 17.6017L5.75094 17.6672L5.7542 17.6713C5.77404 17.6984 5.79442 17.7234 5.81481 17.7493C5.85667 17.8036 5.89934 17.8566 5.94283 17.9083C5.96022 17.9295 5.97789 17.9507 5.99556 17.9716L6.0192 17.9988L6.06079 18.0477L6.10645 18.1002C6.1407 18.1393 6.17494 18.1779 6.21001 18.216C6.22876 18.2366 6.24751 18.2573 6.26654 18.2776L6.28285 18.295C6.30215 18.3157 6.32144 18.3364 6.34101 18.3567C6.34536 18.3616 6.34998 18.3665 6.3546 18.3711C6.37526 18.3929 6.39619 18.4146 6.41712 18.4361L6.42663 18.4456C6.4481 18.4676 6.46957 18.4894 6.49132 18.5111L6.56389 18.5829L6.62858 18.6451C6.6332 18.65 6.63782 18.6544 6.64271 18.6587L6.68593 18.6995C6.70577 18.7185 6.72588 18.737 6.746 18.7555C6.75361 18.7628 6.76149 18.7699 6.76937 18.7769C6.79818 18.8041 6.82754 18.8297 6.85689 18.8558L6.86233 18.8607C6.8925 18.8876 6.92294 18.9142 6.95365 18.9406C6.98436 18.9669 7.01453 18.9933 7.04416 19.0197C7.04769 19.0232 7.0515 19.0262 7.05558 19.0292C7.0765 19.0468 7.0977 19.0642 7.1189 19.0816C7.13521 19.0952 7.15179 19.1088 7.16837 19.1219C7.22273 19.1659 7.27791 19.2091 7.33363 19.2515C7.35021 19.2646 7.36679 19.2771 7.38364 19.2896C7.40049 19.3021 7.42006 19.3167 7.438 19.3309L7.46762 19.3526C7.49018 19.3695 7.51329 19.386 7.53612 19.4026C7.57852 19.4333 7.62092 19.4632 7.66386 19.4929C7.69702 19.5157 7.73018 19.5385 7.76361 19.5608C7.77068 19.566 7.77802 19.5706 7.78509 19.5752C7.81607 19.5959 7.84733 19.6165 7.87859 19.6366C7.91474 19.6603 7.95116 19.6837 7.98731 19.7062C8.05988 19.7524 8.13353 19.7973 8.20882 19.8405C8.24497 19.862 8.28194 19.8834 8.31945 19.9044C8.35695 19.9253 8.39528 19.9468 8.43442 19.9682L8.49149 19.999L8.60647 20.0596L8.66436 20.0889C8.68366 20.099 8.70296 20.1088 8.72252 20.1183C8.78069 20.1471 8.8394 20.1754 8.89838 20.2031L8.90626 20.2069L9.01688 20.2574C9.05657 20.2751 9.09625 20.2928 9.1362 20.3099C9.17616 20.327 9.21774 20.3441 9.25661 20.3607L9.31722 20.3855C9.35691 20.4015 9.39686 20.4173 9.43682 20.4328C9.43817 20.4336 9.43953 20.4341 9.44116 20.4344L9.50042 20.4569C9.54119 20.4724 9.58196 20.4874 9.62354 20.5023L9.68551 20.5243C9.74694 20.5458 9.80891 20.5667 9.87115 20.5871C9.89235 20.5942 9.91382 20.601 9.9353 20.6075C9.99808 20.6276 10.0617 20.6467 10.1256 20.6649L10.1892 20.6831C10.2742 20.7073 10.3596 20.7301 10.4457 20.751L10.5104 20.7668L10.5963 20.7869L10.6235 20.7932L10.6572 20.8005L10.6781 20.8051L10.7007 20.81L10.7689 20.8244H10.7749L10.8021 20.8299C11.3603 20.9432 11.9289 21 12.4986 20.9997H12.6362C12.6821 20.9997 12.7278 20.9978 12.7734 20.9965C12.8191 20.9951 12.8645 20.9932 12.9093 20.991C12.9998 20.987 13.0906 20.9812 13.1811 20.9739C13.2939 20.9652 13.4059 20.9541 13.5171 20.9405C13.5617 20.935 13.606 20.9296 13.6503 20.9236L13.7166 20.9144C13.7389 20.9114 13.7609 20.9081 13.7829 20.9046L13.8489 20.8943L13.9577 20.8761C14.0302 20.8636 14.1025 20.85 14.1751 20.8353C14.2403 20.8225 14.3053 20.8086 14.3697 20.794L14.4341 20.7793C14.4839 20.7679 14.5336 20.7556 14.5831 20.7431L14.6263 20.732C14.6687 20.7211 14.7108 20.71 14.753 20.6986H14.7557L14.8799 20.6632L15.0014 20.6271L15.0071 20.6252L15.1248 20.5879L15.1302 20.586C15.1715 20.5725 15.2117 20.5589 15.2542 20.5447C15.2876 20.5333 15.321 20.5216 15.3542 20.5097L15.3892 20.4972C15.4259 20.4838 15.4629 20.47 15.4993 20.4564C15.5806 20.426 15.6613 20.3942 15.7409 20.3607C15.7812 20.3441 15.8209 20.3276 15.8605 20.3104C15.9375 20.2776 16.0138 20.243 16.0894 20.2077L16.0967 20.2042L16.2133 20.1498C16.2745 20.1199 16.3354 20.0895 16.396 20.0582H16.3973C16.5947 19.9563 16.7874 19.847 16.9752 19.7299L16.9823 19.7255C17.0094 19.7095 17.0342 19.6932 17.06 19.6766C17.0929 19.6557 17.1255 19.6345 17.1578 19.6133C17.1902 19.5921 17.219 19.5728 17.2494 19.5524L17.2549 19.5486C17.2872 19.5268 17.3193 19.5048 17.3511 19.4825C17.3859 19.4583 17.4207 19.4336 17.4552 19.4089L17.4617 19.4043L17.5628 19.3295C17.6006 19.3023 17.6384 19.2733 17.6756 19.2442C17.7129 19.2151 17.7452 19.1898 17.7797 19.1626C17.8142 19.1354 17.8482 19.1083 17.8822 19.0811C17.9162 19.0539 17.9501 19.0251 17.9836 18.9968C18.017 18.9686 18.0504 18.9398 18.0836 18.9109C18.1167 18.8821 18.1496 18.853 18.1823 18.8237C18.1893 18.8177 18.1964 18.8112 18.2035 18.8047L18.2247 18.7854L18.2668 18.7468C18.2912 18.7242 18.3157 18.7014 18.3399 18.6783C18.4163 18.6057 18.4916 18.5323 18.5652 18.4576L18.612 18.4095C18.6359 18.385 18.6593 18.3603 18.6826 18.3355C18.6867 18.3317 18.6902 18.3277 18.6941 18.3236L18.7416 18.2725C18.7615 18.251 18.7813 18.2295 18.8009 18.2078L18.859 18.1426L18.8675 18.1336L18.8791 18.1203C18.8971 18.1004 18.9148 18.0803 18.9319 18.0599C18.9343 18.0575 18.9365 18.0548 18.9387 18.0523L18.9411 18.0496C18.9683 18.0181 18.9955 17.9866 19.0227 17.9547L19.0262 17.9504C19.0479 17.9232 19.0697 17.8979 19.0912 17.8716C19.1026 17.858 19.1137 17.8444 19.1246 17.8305C19.1455 17.8053 19.1656 17.7797 19.1857 17.7542L19.1895 17.7493C19.2083 17.7254 19.2268 17.7017 19.2453 17.6775C19.2637 17.6533 19.2822 17.6297 19.2996 17.6055C19.317 17.5813 19.3344 17.559 19.3515 17.5356C19.3687 17.5123 19.3907 17.4813 19.4097 17.4557C19.423 17.437 19.4369 17.4182 19.4499 17.3992C19.4709 17.3698 19.4915 17.3405 19.5116 17.3106C19.5633 17.2358 19.6136 17.1603 19.6627 17.0834C19.6791 17.0578 19.6954 17.0323 19.7114 17.0064C19.7592 16.9301 19.806 16.8529 19.8514 16.7749C19.8666 16.7477 19.8815 16.7227 19.8965 16.6966L19.9022 16.686L19.9427 16.614C19.9704 16.5642 19.9976 16.5142 20.0242 16.4634C20.0509 16.4126 20.077 16.3617 20.1028 16.3106C20.1199 16.2767 20.1368 16.2424 20.1533 16.2082C20.1805 16.1538 20.2061 16.0978 20.2316 16.0424C20.2572 15.9869 20.2825 15.9307 20.3064 15.8744C20.3368 15.8043 20.3664 15.7333 20.395 15.6621C20.4235 15.5909 20.451 15.5194 20.4765 15.4471C20.4928 15.4039 20.5083 15.3604 20.5235 15.3167C20.5238 15.3158 20.5238 15.3153 20.5235 15.3145C20.5393 15.2702 20.5545 15.2259 20.5692 15.181C20.5825 15.1411 20.5956 15.1009 20.6083 15.0604C20.6211 15.0199 20.6333 14.9788 20.6456 14.9389C20.6537 14.9117 20.6613 14.8845 20.669 14.8587C20.6766 14.8329 20.6839 14.8065 20.6912 14.7804L20.6929 14.775L20.7124 14.7027L20.7173 14.6842C20.7233 14.6616 20.729 14.6391 20.735 14.6168C20.7573 14.5301 20.7782 14.4426 20.7975 14.3548C20.8024 14.333 20.807 14.3113 20.8116 14.2895C20.8176 14.2623 20.8233 14.2352 20.829 14.208C20.8407 14.1512 20.8516 14.0944 20.8619 14.0373C20.8668 14.0101 20.8714 13.9848 20.8758 13.9587C20.8801 13.9327 20.885 13.9057 20.8891 13.8794C20.8986 13.822 20.9076 13.7644 20.9163 13.7071C20.919 13.6872 20.922 13.6674 20.9244 13.6475L20.9302 13.606C20.9323 13.5877 20.9348 13.5698 20.9369 13.5516L20.9402 13.5244C20.9432 13.501 20.9459 13.4774 20.9484 13.4537C20.9584 13.3649 20.9671 13.2754 20.9739 13.186C20.9758 13.164 20.9774 13.1423 20.9791 13.1202C20.9791 13.1135 20.9791 13.1064 20.9804 13.0996C20.9821 13.0765 20.9837 13.0534 20.9851 13.0303V13.0254C20.9886 12.9678 20.9916 12.9101 20.9938 12.8523C20.9938 12.8218 20.9962 12.7911 20.997 12.7604V12.7074C20.997 12.6764 20.9984 12.6454 20.9986 12.6142V12.5033C21.0008 12.431 21 12.3614 20.9986 12.2923H20.9984ZM6.25186 9.77086C6.25349 9.76651 6.2554 9.76216 6.25757 9.75808L6.2592 9.75482C6.60683 8.99324 7.08738 8.29933 7.67827 7.70626C7.69376 7.6905 7.70953 7.67473 7.72529 7.65924C7.7647 7.62037 7.80466 7.58151 7.84543 7.54291C7.8862 7.50432 7.92778 7.46599 7.97018 7.42767C8.01258 7.38934 8.0558 7.35129 8.09956 7.31351C8.23111 7.1999 8.37 7.08819 8.51596 6.97866C8.61326 6.90608 8.71383 6.83433 8.81793 6.76285L8.82064 6.76094C9.88583 6.07655 11.1212 5.70391 12.3872 5.68516H12.5003C12.5818 5.68516 12.6634 5.68652 12.7449 5.68951L12.7993 5.69168L12.8479 5.69413H12.8574L12.9373 5.69875L13.024 5.70473L13.1105 5.7118L13.1964 5.71995C13.2472 5.72511 13.298 5.73082 13.3483 5.73734C13.3866 5.74197 13.4247 5.74713 13.4627 5.75229L13.5342 5.76289H13.5424L13.6117 5.77377L13.6426 5.77893L13.7062 5.79007C13.7334 5.79497 13.762 5.80013 13.79 5.80557C13.818 5.811 13.8443 5.81617 13.8734 5.82215C13.9025 5.82813 13.9278 5.83302 13.9533 5.839C13.9846 5.84579 14.0156 5.85259 14.0465 5.85993L14.111 5.87542C14.1417 5.88276 14.1724 5.89064 14.2031 5.89852L14.233 5.90613H14.2379L14.2759 5.91646C14.308 5.92489 14.3404 5.93386 14.3722 5.94364L14.4464 5.96539C14.476 5.97408 14.5053 5.98305 14.5347 5.99256L14.5948 6.01159L14.6108 6.01703L14.6543 6.03143C14.6787 6.03931 14.7032 6.04774 14.7277 6.05617C14.7521 6.06459 14.769 6.0703 14.7896 6.07791L14.8008 6.08172C14.8261 6.09068 14.8511 6.09993 14.8761 6.1089C14.9084 6.12085 14.9408 6.13309 14.9728 6.14559C14.9492 6.16652 14.9258 6.18772 14.9024 6.20919C13.3399 7.62663 12.3619 9.57543 12.1597 11.6754H5.73272C5.81155 11.0184 5.98659 10.377 6.25186 9.77086ZM10.7249 20.8149L10.739 20.8179L10.7474 20.8198L10.7249 20.8149V20.8149ZM10.8491 20.8405H10.8537C10.8931 20.8481 10.9325 20.8557 10.9719 20.8627C10.9309 20.8562 10.8899 20.8483 10.8494 20.8405H10.8491ZM11.1095 20.8872C11.1676 20.8967 11.2258 20.906 11.2842 20.9144C11.2258 20.906 11.1676 20.8967 11.1095 20.8872ZM11.2848 20.9144C11.2984 20.9166 11.312 20.9185 11.325 20.9201L11.3815 20.9277L11.2848 20.9144ZM11.4095 20.9312L11.4498 20.9364L11.4095 20.9312ZM11.5183 20.9443C11.5574 20.9489 11.5965 20.9532 11.6359 20.9571C11.6571 20.9595 11.6786 20.9614 11.7001 20.9633C11.7319 20.9663 11.7632 20.9693 11.795 20.9717C11.7015 20.9638 11.6104 20.9546 11.5174 20.944H11.5183V20.9443ZM11.8632 20.9772L11.895 20.9796L11.9317 20.9821L11.992 20.9859C11.9482 20.9831 11.9053 20.9802 11.8624 20.9769H11.8632V20.9772ZM12.2679 20.9981C12.3089 20.9981 12.3494 21 12.3913 21.0005C12.3492 20.9997 12.3081 20.9989 12.2671 20.9978H12.2679V20.9981ZM12.0181 20.9883H12.0613C12.0885 20.9902 12.1157 20.9913 12.1429 20.9924C12.179 20.994 12.2154 20.9951 12.2516 20.9962C12.173 20.9948 12.095 20.9924 12.0181 20.9883ZM14.9478 18.8664L14.9207 18.877L14.9027 18.8838L14.863 18.8984L14.8108 18.9175L14.7587 18.9362L14.75 18.9392C14.7176 18.9504 14.685 18.9612 14.6521 18.9721L14.6165 18.9841L14.5806 18.9957L14.5548 19.0039L14.5081 19.0183L14.461 19.0324L14.3993 19.0509L14.339 19.0683L14.2874 19.0824L14.2466 19.0933L14.2058 19.1039L14.1436 19.1197L14.1017 19.13L14.0555 19.1409L14.0316 19.1463L13.959 19.1626L13.9215 19.1708C13.9191 19.1716 13.9164 19.1721 13.9136 19.1724C13.9011 19.1751 13.8886 19.1778 13.8761 19.18C13.8218 19.1912 13.7674 19.202 13.7111 19.2118C13.684 19.2167 13.6568 19.2216 13.628 19.226C13.5992 19.2303 13.5736 19.2352 13.5448 19.2393L13.4663 19.251C13.4007 19.2605 13.3352 19.2686 13.2692 19.276L13.2233 19.2809L13.1849 19.2847L13.1007 19.2925L13.0379 19.2977L13.0015 19.3004H12.9743C12.9343 19.3031 12.8944 19.3059 12.8542 19.308H12.8528L12.8009 19.3105H12.7938L12.7335 19.3127C12.7063 19.3127 12.6791 19.3143 12.6533 19.3148H12.3369C10.072 19.2621 7.9816 18.0868 6.75959 16.1794L6.75714 16.1755L6.75116 16.1655C6.73458 16.1397 6.71827 16.1136 6.70196 16.0875C6.63293 15.9763 6.56715 15.863 6.50464 15.7475C6.34726 15.4575 6.21082 15.1566 6.09694 14.847C6.07411 14.7847 6.05236 14.722 6.03116 14.6589C6.02138 14.6293 6.01159 14.5994 6.00208 14.5695C5.99257 14.5396 5.98332 14.5097 5.9749 14.4795C5.95886 14.4268 5.94364 14.3741 5.92896 14.3208C5.91782 14.2808 5.90722 14.2409 5.89689 14.2006C5.86618 14.0802 5.83846 13.9587 5.81399 13.8356L5.79605 13.7416C5.78491 13.6804 5.77458 13.6193 5.76507 13.5576L5.76262 13.5415C5.75393 13.4855 5.74604 13.4296 5.73898 13.3733V13.3616H12.1643C12.378 15.4806 13.3809 17.4416 14.9739 18.855L14.9478 18.8664V18.8664ZM16.3884 20.0623L16.3916 20.0607L16.3884 20.0623ZM16.5618 19.9704C16.6047 19.947 16.6474 19.9234 16.6898 19.8992C16.7322 19.875 16.7743 19.8508 16.8162 19.8261L16.8194 19.8242C16.7333 19.8745 16.6469 19.9234 16.5601 19.971L16.5618 19.9704V19.9704ZM18.4372 15.8328C18.2439 16.181 18.0222 16.5123 17.774 16.8235V16.8251L17.7648 16.8366L17.7485 16.8564C17.4147 17.2576 17.0363 17.6193 16.6205 17.9346L16.6118 17.9281L16.5939 17.9143C16.4202 17.7813 16.2536 17.6405 16.0935 17.4913C16.0734 17.4726 16.0535 17.4541 16.0339 17.4351C15.9747 17.3788 15.9165 17.3215 15.8594 17.2627L15.8024 17.2038C15.7972 17.1986 15.7923 17.1932 15.7874 17.188L15.7418 17.1451L15.7053 17.1056C15.6763 17.0741 15.6474 17.042 15.6189 17.0097L15.5787 16.9627L15.5515 16.9328C15.5246 16.9013 15.498 16.8695 15.4716 16.8377C15.4542 16.8165 15.4368 16.7955 15.4199 16.7743L15.4488 16.8102L15.4455 16.8061L15.4199 16.7743C15.4026 16.7529 15.3857 16.7317 15.3689 16.7102L15.4104 16.7629L15.3949 16.7433L15.3678 16.7102C15.3678 16.7102 15.3664 16.7083 15.3656 16.7075C15.3433 16.6789 15.321 16.6501 15.299 16.6213C15.2963 16.618 15.2938 16.6148 15.2917 16.6115C15.2675 16.5792 15.2436 16.5466 15.2194 16.5142C15.0908 16.3375 14.9704 16.1546 14.8584 15.9657C14.8307 15.9184 14.8035 15.8709 14.7769 15.823C14.7247 15.7298 14.6747 15.6352 14.6271 15.5395C14.5627 15.4104 14.5024 15.2792 14.4461 15.1452C14.4116 15.0636 14.3784 14.9821 14.3474 14.8986C14.3537 14.9152 14.3602 14.9318 14.3667 14.9484C14.1702 14.4374 14.0362 13.9044 13.968 13.3613H19.2463C19.1833 13.9487 18.9895 14.8356 18.4345 15.8334L18.4372 15.8328V15.8328Z" fill="black"/>
</g>
<defs>
<clipPath id="clip0_3775_5487">
<rect width="17" height="17" fill="white" transform="translate(4 4)"/>
</clipPath>
</defs>
</svg>
