<svg width="24" height="24" viewBox="0 0 24 24" xmlns="http://www.w3.org/2000/svg" fill="#000"><path d="M11.008 0.045 C 7.427 0.339,4.191 2.216,2.112 5.202 C 0.182 7.975,-0.475 11.613,0.357 14.909 C 1.444 19.212,4.808 22.578,9.080 23.638 C 10.149 23.903,10.816 23.979,12.060 23.977 C 13.229 23.975,13.784 23.911,14.820 23.661 C 18.807 22.697,22.017 19.775,23.345 15.900 C 23.868 14.377,24.099 12.626,23.974 11.146 L 23.948 10.840 19.010 10.840 L 14.071 10.840 14.097 10.650 C 14.489 7.822,16.173 5.266,18.629 3.775 C 19.035 3.528,19.840 3.120,19.919 3.120 C 20.048 3.120,19.942 2.998,19.509 2.650 C 17.104 0.718,14.084 -0.208,11.008 0.045 M13.072 2.442 C 13.657 2.506,14.385 2.662,14.962 2.848 L 15.479 3.015 14.947 3.558 C 14.160 4.359,13.620 5.063,13.062 6.014 C 12.284 7.339,11.717 9.054,11.540 10.610 L 11.514 10.840 6.980 10.840 L 2.445 10.840 2.466 10.690 C 2.763 8.614,3.705 6.734,5.199 5.238 C 5.475 4.963,5.853 4.615,6.040 4.465 C 7.388 3.388,9.007 2.698,10.740 2.463 C 11.229 2.396,12.542 2.385,13.072 2.442 M11.540 13.390 C 11.854 15.734,12.695 17.739,14.113 19.520 C 14.280 19.729,14.655 20.142,14.946 20.439 C 15.238 20.735,15.472 20.980,15.468 20.984 C 15.464 20.988,15.289 21.049,15.080 21.119 C 13.400 21.681,11.610 21.769,9.860 21.377 C 6.185 20.553,3.275 17.554,2.561 13.856 C 2.516 13.625,2.480 13.383,2.480 13.318 L 2.480 13.200 6.998 13.200 L 11.515 13.200 11.540 13.390 M21.502 13.390 C 21.318 14.675,20.828 15.999,20.109 17.158 C 19.615 17.951,18.820 18.857,18.117 19.428 L 17.814 19.674 17.417 19.342 C 15.632 17.850,14.417 15.670,14.101 13.390 L 14.075 13.200 17.802 13.200 L 21.529 13.200 21.502 13.390 "/></svg>
