<svg version="1.2" xmlns="http://www.w3.org/2000/svg" viewBox="0 0 24 24" width="24" height="24">
	<path class="gm01" d="m12.8 11.7q0 0.2 0 0.3h-12.8c0-6.6 5.4-12 12-12 2.4 0 4.6 0.7 6.4 1.8-3.3 2.1-5.5 5.8-5.6 9.9z" fill="#3867f6"/>
	<path class="gm02" d="m18.4 22.1c-1.8 1.2-4 1.9-6.4 1.9-6.6 0-12-5.4-12-12h12.8q0 0 0 0 0 0 0 0 0 0 0 0 0 0.1 0 0.2c0.1 4.2 2.3 7.8 5.6 9.9z" fill="#101010"/>
	<path class="gm03" d="m24 12c0 4.2-2.3 8-5.6 10.1-3.3-2.1-5.5-5.7-5.6-9.9q0-0.1 0-0.2 0 0 0 0 0 0 0 0 0 0 0 0z" fill="#d2fd51"/>
</svg>
