<?xml version="1.0" encoding="UTF-8" standalone="no"?>
<svg id="Layer_1" data-name="Layer 1" xmlns="http://www.w3.org/2000/svg" xmlns:xlink="http://www.w3.org/1999/xlink" viewBox="0 0 1237 222"><script xmlns="">{
            document.currentScript.dataset.injected = true;
            const o = JSON.parse('{"userAgent":"Mozilla/5.0 (X11; Linux x86_64) AppleWebKit/537.36 (KHTML, like Gecko) Chrome/103.0.9999.0 Safari/537.36","appVersion":"5.0 (X11; Linux x86_64) AppleWebKit/537.36 (KHTML, like Gecko) Chrome/103.0.9999.0 Safari/537.36","platform":"Linux","vendor":"Google Inc.","product":"Gecko","oscpu":"[delete]","buildID":"[delete]","productSub":"20030107","userAgentData":{"brands":[{"brand":" Not A;Brand","version":"99"},{"brand":"Chromium","version":"103"},{"brand":"Google Chrome","version":"103"}],"mobile":false}}');

            for (const key of Object.keys(o)) {
              if (o[key] === '[delete]') {
                delete Object.getPrototypeOf(window.navigator)[key];
              }
              else {
                navigator.__defineGetter__(key, () =&gt; {
                  if (o[key] === 'empty') {
                    return '';
                  }
                  return o[key];
                });
              }
            }
          }</script><defs><style>.cls-1{fill:url(#linear-gradient);}.cls-2{fill:url(#linear-gradient-2);}.cls-3{fill:url(#linear-gradient-3);}.cls-4{fill:url(#linear-gradient-4);}.cls-5{fill:url(#linear-gradient-5);}.cls-6{fill:url(#linear-gradient-6);}.cls-7{fill:#0a1a40;}.cls-8{fill:#fff;opacity:0;}</style><linearGradient id="linear-gradient" x1="188.96" y1="347.64" x2="262.67" y2="421.36" gradientTransform="translate(338.02 -47.06) rotate(45)" gradientUnits="userSpaceOnUse"><stop offset="0" stop-color="#40ed99"/><stop offset="0.45" stop-color="#3feb98"/><stop offset="0.65" stop-color="#3de493"/><stop offset="0.79" stop-color="#3ad78b"/><stop offset="0.91" stop-color="#35c680"/><stop offset="1" stop-color="#30b273"/></linearGradient><linearGradient id="linear-gradient-2" x1="174.3" y1="362.35" x2="248.01" y2="436.06" gradientTransform="translate(344.13 -32.38) rotate(45)" gradientUnits="userSpaceOnUse"><stop offset="0" stop-color="#2667ff"/><stop offset="0.45" stop-color="#2666fd"/><stop offset="0.63" stop-color="#2563f6"/><stop offset="0.78" stop-color="#235ee9"/><stop offset="0.89" stop-color="#2057d8"/><stop offset="0.99" stop-color="#1c4ec1"/><stop offset="1" stop-color="#1c4dbf"/></linearGradient><linearGradient id="linear-gradient-3" x1="110.08" y1="326.28" x2="233.76" y2="449.96" gradientUnits="userSpaceOnUse"><stop offset="0" stop-color="#1c4dbf"/><stop offset="0.48" stop-color="#1c4cbd"/><stop offset="0.68" stop-color="#1b49b6"/><stop offset="0.83" stop-color="#1944a9"/><stop offset="0.95" stop-color="#163d98"/><stop offset="1" stop-color="#153a8f"/></linearGradient><linearGradient id="linear-gradient-4" x1="457.57" y1="733.41" x2="531.28" y2="807.13" gradientTransform="matrix(0.58, 0.71, -0.58, 0.71, 305.64, -480.98)" gradientUnits="userSpaceOnUse"><stop offset="0" stop-color="#1c4dbf" stop-opacity="0"/><stop offset="0.2" stop-color="#1b4ab7" stop-opacity="0.17"/><stop offset="0.61" stop-color="#1841a1" stop-opacity="0.61"/><stop offset="0.94" stop-color="#153a8f"/></linearGradient><linearGradient id="linear-gradient-5" x1="128.75" y1="382.1" x2="202.47" y2="455.81" gradientTransform="matrix(0.58, 0.71, -0.58, 0.71, 343.3, -0.15)" gradientUnits="userSpaceOnUse"><stop offset="0" stop-color="#1c4dbf" stop-opacity="0"/><stop offset="0.17" stop-color="#1c4cbe" stop-opacity="0.03"/><stop offset="0.34" stop-color="#1b4bba" stop-opacity="0.11"/><stop offset="0.5" stop-color="#1a48b3" stop-opacity="0.25"/><stop offset="0.67" stop-color="#1945aa" stop-opacity="0.45"/><stop offset="0.83" stop-color="#17409e" stop-opacity="0.7"/><stop offset="1" stop-color="#153a8f"/></linearGradient><linearGradient id="linear-gradient-6" x1="85.03" y1="351.33" x2="134.99" y2="401.29" gradientUnits="userSpaceOnUse"><stop offset="0" stop-color="#1c4dbf"/><stop offset="0.72" stop-color="#17409d"/><stop offset="1" stop-color="#153a8f"/></linearGradient></defs><rect class="cls-1" x="97.53" y="332.38" width="256.57" height="104.25" rx="52.12" transform="translate(-273.74 -0.71) rotate(-45)"/><rect class="cls-2" x="103.74" y="347.08" width="214.83" height="104.25" rx="52.12" transform="translate(-288.43 -6.77) rotate(-45)"/><path class="cls-3" d="M259,351h0a52.29,52.29,0,0,0-73.72,0L172,364.31l-13.1-13.1a52.27,52.27,0,0,0-73.72,0h0a52.27,52.27,0,0,0,0,73.71l45.54,45.53a50.86,50.86,0,0,0,4.15,4.71h0a52.27,52.27,0,0,0,73.71,0L259,424.76A52.29,52.29,0,0,0,259,351Z" transform="translate(-68 -273)"/><rect class="cls-4" x="59.3" y="361.17" width="174.97" height="104.25" rx="52.12" transform="translate(267.24 -255.74) rotate(45)"/><rect class="cls-5" x="109.53" y="361.07" width="175.26" height="104.25" rx="52.12" transform="translate(-302.43 -12.56) rotate(-45)"/><path class="cls-6" d="M172,364.31,98,438.25s-11.9-10.62-19.15-20.37C65,399.2,66.73,369.64,85.15,351.21c17.21-17.21,43.62-20.77,66.35-6.12C158.37,349.51,172,364.31,172,364.31Z" transform="translate(-68 -273)"/><path class="cls-7" d="M488.3,437.49c0,29.07-22.62,52.87-50.24,52.87-19.42,0-36.63-11.37-45.24-29.7a10.54,10.54,0,0,1,4.61-13.9,9.7,9.7,0,0,1,13.21,4.64c5.2,11.16,15.61,18.11,27.42,18.11,16.61,0,30-14.11,30.42-31.38V426.54a49.14,49.14,0,0,1-30.42,10.95c-27.82,0-50.24-23.8-50.24-52.87,0-29.27,22.42-52.87,50.24-52.87,27.62,0,50.24,23.6,50.24,52.87Zm-19.82-52.87c0-17.69-13.81-32-30.42-32-16.81,0-30.42,14.32-30.42,32,0,17.49,13.61,32,30.42,32C454.67,416.64,468.48,402.11,468.48,384.62Z" transform="translate(-68 -273)"/><path class="cls-7" d="M560.35,342.29c0,5.68-4.41,10.53-10,10.53-16.81,0-30.42,14.32-30.42,32v42.34c0,5.69-4.41,10.53-9.81,10.53-5.6,0-10-4.84-10-10.53V384.83c0-29.27,22.62-52.86,50.24-52.86A10.13,10.13,0,0,1,560.35,342.29Z" transform="translate(-68 -273)"/><path class="cls-7" d="M559.74,384.62c0-29.27,22.62-52.87,50.24-52.87,27.82,0,50.24,23.6,50.24,52.87,0,29.07-22.42,52.87-50.24,52.87C582.36,437.49,559.74,413.69,559.74,384.62Zm19.82,0c0,17.49,13.61,32,30.42,32s30.43-14.53,30.43-32c0-17.69-13.62-32-30.43-32S579.56,366.93,579.56,384.62Z" transform="translate(-68 -273)"/><path class="cls-7" d="M966.09,375.15a2,2,0,0,1,.2,1.05v51.18a10.31,10.31,0,0,1-10,10.54c-5.4,0-9.8-4.64-9.8-10.54V374.3c0-11.79-9.21-21.27-20.42-21.27s-20.41,9.48-20.41,21.27v53.08c0,5.9-4.41,10.54-9.81,10.54a10.31,10.31,0,0,1-10-10.54V374.3c0-11.79-9-21.27-20.21-21.27s-20.42,9.48-20.42,21.27v53.08c0,5.9-4.4,10.54-9.81,10.54-5.6,0-10-4.64-10-10.54V374.3c0-23.17,18-42.12,40.24-42.12a38.81,38.81,0,0,1,30.22,14.53,38.78,38.78,0,0,1,30.22-14.53c22.22,0,40.23,18.95,40.23,42.12C966.29,374.72,966.29,374.94,966.09,375.15Z" transform="translate(-68 -273)"/><path class="cls-7" d="M977.5,384.62c0-29.27,22.62-52.87,50.24-52.87,27.82,0,50.24,23.6,50.24,52.87,0,29.07-22.42,52.87-50.24,52.87C1000.12,437.49,977.5,413.69,977.5,384.62Zm19.82,0c0,17.49,13.61,32,30.42,32s30.42-14.53,30.42-32c0-17.69-13.61-32-30.42-32S997.32,366.93,997.32,384.62Z" transform="translate(-68 -273)"/><path class="cls-7" d="M1170.65,342.08V289.63a9.91,9.91,0,1,1,19.81,0V384.2c0,29.07-22.62,52.87-50.24,52.87-27.82,0-50.24-23.8-50.24-52.87,0-29.27,22.42-52.87,50.24-52.87A48.58,48.58,0,0,1,1170.65,342.08Zm0,42.12V384c0-17.48-13.62-31.8-30.43-31.8s-30.42,14.32-30.42,32c0,17.49,13.61,32,30.42,32S1170.65,401.9,1170.65,384.2Z" transform="translate(-68 -273)"/><path class="cls-7" d="M1201.87,384.62c0-29.27,22.62-52.87,50.24-52.87,27.82,0,50.24,23.6,50.24,52.87,0,29.07-22.42,52.87-50.24,52.87C1224.49,437.49,1201.87,413.69,1201.87,384.62Zm19.82,0c0,17.49,13.61,32,30.42,32s30.42-14.53,30.42-32c0-17.69-13.61-32-30.42-32S1221.69,366.93,1221.69,384.62Z" transform="translate(-68 -273)"/><path class="cls-7" d="M671.73,395.24a2,2,0,0,1-.2-1.06V343a10.31,10.31,0,0,1,10-10.53c5.4,0,9.81,4.63,9.81,10.53v53.08c0,11.8,9.2,21.27,20.41,21.27s20.42-9.47,20.42-21.27V343c0-5.9,4.4-10.53,9.8-10.53A10.3,10.3,0,0,1,752,343v53.08c0,11.8,9,21.27,20.22,21.27s20.41-9.47,20.41-21.27V343c0-5.9,4.41-10.53,9.81-10.53,5.61,0,10,4.63,10,10.53v53.08c0,23.17-18,42.13-40.23,42.13A38.83,38.83,0,0,1,742,423.67a38.79,38.79,0,0,1-30.22,14.54c-22.21,0-40.23-19-40.23-42.13C671.53,395.66,671.53,395.45,671.73,395.24Z" transform="translate(-68 -273)"/><rect class="cls-8" width="1237" height="222"/></svg>