<svg width="153" height="24" viewBox="0 0 153 24" xmlns="http://www.w3.org/2000/svg" fill="#fff"><path d="M12.9853 13.9861H18.7336C18.36 17.6714 15.621 20.1277 11.7934 20.1277C7.43556 20.1277 4.16771 16.8522 4.16771 12.0336C4.16771 7.27686 7.34216 3.90761 11.8243 3.90761C12.9858 3.90091 14.1341 4.15757 15.1848 4.65874C16.2354 5.15991 17.1617 5.89285 17.8956 6.80372L20.8214 3.96883C18.487 1.26039 15.3434 0 11.8269 0C5.10439 0 0 4.94441 0 11.999C0 19.0536 5.1353 24 11.796 24C18.4251 24 23 19.2752 23 11.9691V10.364H12.9853V13.9861Z"/><path d="M32 7H30.1256C26.8156 7 25 8.66167 25 12.4139V23H28.6312V12.3231C28.6312 10.9318 29.1586 10.3873 30.4766 10.3873H32V7Z"/><path d="M40.5 7C35.7438 7 32 10.5533 32 15.4845C32 20.4157 35.7438 24 40.5 24C45.2562 24 49 20.4163 49 15.4845C49 10.5526 45.2562 7 40.5 7ZM40.5 20.4163C37.8301 20.4163 35.8055 18.395 35.8055 15.4845C35.8055 12.5739 37.8301 10.5533 40.5 10.5533C43.1699 10.5533 45.1945 12.5745 45.1945 15.4845C45.1945 18.3944 43.1693 20.4163 40.5 20.4163Z"/><path d="M66.7657 17.7382L63.3157 7H59.8056L56.2652 18.0099L52.9681 7H49L54.1286 23H57.8219L61.4848 12.263L65.1478 23H68.6269L74 7H70.1229L66.7657 17.7382Z"/><path d="M90.848 7C88.5422 7 86.8769 7.88795 85.9693 9.27768C85.0597 7.88795 83.3932 7 81.12 7C77.3033 7 75 9.48514 75 13.6862V23H78.7566V13.5956C78.7566 11.6147 79.6962 10.4318 81.3935 10.4318C83.0908 10.4318 84.1208 11.6147 84.1208 13.7143V23H87.8779V13.7143C87.8779 11.6147 88.8784 10.4318 90.6059 10.4318C92.2712 10.4318 93.2422 11.6147 93.2422 13.5956V23H97V13.6849C97.0006 9.48514 94.6666 7 90.848 7Z"/><path d="M107.5 7C102.744 7 99 10.5533 99 15.4845C99 20.4157 102.744 24 107.5 24C112.257 24 116 20.4163 116 15.4845C116 10.5526 112.257 7 107.5 7ZM107.5 20.4163C104.83 20.4163 102.805 18.395 102.805 15.4845C102.805 12.5739 104.83 10.5533 107.5 10.5533C110.17 10.5533 112.195 12.5745 112.195 15.4845C112.195 18.3944 110.17 20.4163 107.5 20.4163Z"/><path d="M132.865 1.14963C132.14 0.415932 131.158 0.00261749 130.133 0V4.88425C130.133 6.14804 130.164 7.41183 130.226 8.6122C129.01 7.34841 127.169 6.65343 125.204 6.65343C120.712 6.65343 117 10.1918 117 15.3424C117 20.4296 120.712 24 125.203 24C127.356 24 129.353 23.1775 130.538 21.6634L130.568 23.6842H134V3.9269C134 2.88535 133.592 1.88641 132.865 1.14963V1.14963ZM125.703 20.3976C122.926 20.3976 120.869 18.3447 120.869 15.3424C120.869 12.3088 122.927 10.2559 125.703 10.2559C128.324 10.2559 130.414 12.1198 130.414 15.3424C130.414 18.5343 128.324 20.3976 125.703 20.3976Z"/><path d="M144 7C138.964 7 135 10.5533 135 15.4845C135 20.4157 138.964 24 144 24C149.036 24 153 20.4163 153 15.4845C153 10.5526 149.036 7 144 7ZM144 20.4163C141.173 20.4163 139.029 18.395 139.029 15.4845C139.029 12.5739 141.173 10.5533 144 10.5533C146.826 10.5533 148.971 12.5745 148.971 15.4845C148.971 18.3944 146.826 20.4163 144 20.4163Z"/></svg>
