<svg width="256" height="256" viewBox="0 0 256 256" fill="none" xmlns="http://www.w3.org/2000/svg"><path d="M7.145 0.513 C 6.265 0.747,4.602 1.786,3.450 2.821 C -0.352 6.240,-0.000 -6.548,0.000 128.022 C 0.000 261.226,-0.290 249.456,3.079 252.892 C 6.412 256.291,-5.300 256.000,128.000 256.000 C 261.300 256.000,249.588 256.291,252.921 252.892 C 256.290 249.456,256.000 261.226,256.000 128.022 C 256.000 -6.514,256.350 6.238,252.562 2.833 C 251.247 1.650,249.779 0.785,248.572 0.481 C 246.044 -0.156,9.544 -0.124,7.145 0.513 M142.080 41.153 C 157.369 43.749,171.057 49.855,183.129 59.462 C 184.939 60.902,186.427 62.198,186.436 62.342 C 186.446 62.486,184.581 63.508,182.293 64.612 C 165.765 72.592,152.718 87.327,146.588 104.938 C 145.148 109.076,143.360 116.627,143.360 118.571 L 143.360 119.462 179.520 119.571 L 215.680 119.680 215.806 126.933 C 216.154 146.883,210.116 165.283,197.923 181.427 C 194.496 185.965,185.965 194.496,181.427 197.923 C 168.793 207.465,153.919 213.501,138.251 215.445 C 133.639 216.017,122.861 216.023,118.175 215.456 C 98.419 213.064,80.935 204.792,66.830 191.162 C 52.320 177.141,43.069 158.511,40.555 138.251 C 39.978 133.601,39.978 122.399,40.555 117.749 C 45.110 81.038,71.816 50.940,107.307 42.519 C 115.434 40.591,120.116 40.123,129.493 40.302 C 134.616 40.399,139.647 40.739,142.080 41.153 M120.320 57.852 C 119.733 57.955,117.429 58.345,115.200 58.719 C 87.857 63.301,64.541 86.141,58.888 113.881 C 58.414 116.205,58.027 118.413,58.027 118.787 C 58.027 119.403,61.146 119.467,91.307 119.467 L 124.587 119.467 124.587 118.456 C 124.587 117.900,124.879 115.740,125.237 113.656 C 128.352 95.506,136.307 79.868,149.215 66.520 C 151.392 64.268,153.173 62.323,153.173 62.197 C 153.173 61.826,146.336 59.756,142.014 58.818 C 138.979 58.160,136.039 57.919,129.707 57.809 C 125.131 57.729,120.907 57.748,120.320 57.852 M58.264 138.987 C 58.783 142.622,60.922 150.316,62.505 154.240 C 69.157 170.732,82.304 184.619,98.217 191.962 C 114.313 199.390,133.116 200.550,149.696 195.138 C 151.483 194.555,153.027 193.995,153.127 193.895 C 153.227 193.795,151.497 191.840,149.283 189.550 C 136.107 175.925,128.028 159.871,125.138 141.572 L 124.409 136.960 91.192 136.960 L 57.974 136.960 58.264 138.987 M143.360 137.625 C 143.360 137.990,143.763 140.234,144.256 142.612 C 147.292 157.263,155.534 171.317,166.849 181.139 C 169.832 183.729,170.564 184.177,171.229 183.821 C 173.108 182.815,181.910 173.723,184.391 170.224 C 191.429 160.303,195.926 149.712,197.475 139.413 L 197.844 136.960 170.602 136.960 C 146.223 136.960,143.360 137.030,143.360 137.625 " fill="#010101" stroke="none" fill-rule="evenodd"></path></svg>