<svg xmlns="http://www.w3.org/2000/svg" width="256" height="256"><path fill-opacity=".016" d="M0 128.004v128.004l128.25-.254 128.25-.254.254-127.75L257.008 0H0v128.004m.485.496c0 70.4.119 99.053.265 63.672.146-35.38.146-92.98 0-128C.604 29.153.485 58.1.485 128.5" fill="#1976D2" fill-rule="evenodd"/><path fill-opacity=".171" d="M.03 61.25c.028 55.966.699 70.748 2.303 50.75 1.372-17.092 9.47-38.85 20.688-55.582C32.573 42.171 49.634 26.377 65.5 17.095c11.972-7.004 30.937-13.44 43.46-14.749C124.945.676 110.128 0 57.5 0H0l.03 61.25M141.41.854c.29.47 3.26 1.14 6.598 1.489 19.195 2.006 42.474 12.239 61.308 26.949l3.816 2.981-8.029 4.29c-11.641 6.22-16.519 9.822-25.553 18.872-15.527 15.556-25.122 34.357-28.994 56.815l-.647 3.75h104.952l.433 2.25c.239 1.237.495-24.862.57-58L256 0h-57.559c-31.657 0-57.321.384-57.031.854m-29.96 25.54C88.194 30.84 70.482 40.326 55.104 56.572 38.975 73.61 30.234 90.417 27.186 110.25l-.883 5.75h97.467l.714-5.75c3.051-24.536 15.729-50.713 33.863-69.916l7.848-8.31-2.848-1.084c-13.052-4.974-38.156-7.172-51.897-4.546M.03 194.25 0 255l57.25-.103c49.934-.089 56.292-.265 49.75-1.38-25.876-4.408-48.391-16-67.842-34.927C18.921 198.899 4.414 169.508 2.341 144 .727 124.13.058 138.664.03 194.25m254.655-50.5c-1.401 17.774-9.263 38.809-21.025 56.25-18.395 27.277-50.687 47.99-83.389 53.488-6.878 1.157-1.25 1.319 48.979 1.409L256 255v-59.5c0-32.725-.158-59.5-.352-59.5-.193 0-.627 3.488-.963 7.75m-227.682 0c.001 1.512 1.144 7.025 2.539 12.25 7.515 28.137 28.879 53.007 56.73 66.04 14.759 6.907 37.337 10.25 54.235 8.032 8.879-1.166 18.08-3.204 23.129-5.124l2.593-.986-7.373-7.731c-18.747-19.658-30.755-44.312-34.33-70.481l-.649-4.75H27l.003 2.75m123.629.5c3.156 17.622 9.224 31.771 19.62 45.75 4.746 6.382 18.577 20 20.313 20 2.134 0 17.131-15.639 22.197-23.149 8.915-13.216 15.18-28.394 16.819-40.752l.677-5.099H150.05l.582 3.25" fill="#1976D2" fill-rule="evenodd"/><path fill-opacity=".51" d="M.125 59.25c.117 55.101.228 58.69 1.582 51.25C7.363 79.441 18.152 57.885 38 37.982 56.494 19.437 79.232 7.258 104.203 2.521c4.486-.851 8.376-1.766 8.643-2.034C113.114.219 87.833 0 56.667 0H0l.125 59.25M146.5 1.028c1.65.452 7.275 1.797 12.5 2.988 11.504 2.622 19.019 5.525 30.444 11.761 8.659 4.726 23.544 15.105 23.552 16.422.002.385-3.693 2.623-8.212 4.974-20.144 10.48-37.345 29.007-46.34 49.913-3.897 9.057-7.444 21.482-7.444 26.074V116h105V0l-56.25.102c-31.423.057-54.926.466-53.25.926m-28.864 25.068c-34.964 3.689-65.064 24.903-81.352 57.335C32.068 91.824 27 108.31 27 113.628V116h48.031c37.575 0 48.107-.272 48.376-1.25.189-.687.83-4.4 1.425-8.25 3.661-23.694 15.784-48.048 33.103-66.501 3.851-4.104 6.663-7.801 6.247-8.217-1.547-1.547-16.792-4.799-27.06-5.773-5.842-.554-10.847-.948-11.122-.875-.275.073-4.039.505-8.364.962M.1 196.25 0 255l55.75-.09c48.503-.079 54.84-.257 48.75-1.373-16.53-3.028-35.946-11.312-50.215-21.426-23.828-16.889-42.257-43.616-49.298-71.498-1.643-6.505-3.032-13.241-3.087-14.97-.055-1.729-.46-4.268-.9-5.643s-.845 23.938-.9 56.25M27 142.872c0 5.154 5.306 21.774 9.828 30.786 13.166 26.236 37.037 45.834 65.198 53.527 7.491 2.046 10.621 2.308 26.974 2.252 15.857-.054 19.638-.377 26.464-2.264 4.38-1.21 8.305-2.542 8.723-2.96.418-.418-2.041-3.731-5.464-7.362-17.21-18.258-28.847-40.633-33.206-63.851-.981-5.225-1.935-10.062-2.119-10.75-.262-.978-10.787-1.25-48.367-1.25-46.268 0-48.031.069-48.031 1.872m124.407 3.139c1.652 12.455 9.63 30.898 18.597 42.995 5.54 7.472 18.281 19.994 20.344 19.994 2.278 0 13.344-10.789 19.651-19.159 9.575-12.707 16.856-29.578 19.462-45.091l.63-3.75H150.742l.665 5.011m103.136 2.488c-2.804 22.445-15.263 47.97-32.598 66.783-17.367 18.848-44.204 33.631-69.445 38.255-6.094 1.116.154 1.294 48.25 1.373L256 255v-56c0-30.8-.173-56-.385-56-.211 0-.694 2.474-1.072 5.499" fill="#1976D2" fill-rule="evenodd"/><path fill-opacity=".863" d="M.116 56.75C.18 87.963.435 112.6.683 111.5c5.515-24.483 8.621-33.373 16.42-47.002C28.165 45.166 43.133 29.851 62.5 18.047 74.048 11.009 83.551 7.126 99.298 3.01L110.5.082 55.25.041 0 0l.116 56.75M157.651 3.033c15.313 4.037 25.059 7.951 35.886 14.412 9.051 5.401 20.489 13.998 20.436 15.36-.015.382-3.503 2.343-7.75 4.357-15.22 7.217-32.505 23.38-41.836 39.119-5.015 8.46-11.497 25.801-12.883 34.469l-.68 4.25H256V0l-54.75.047-54.75.047 11.151 2.939M115 26.666c-15.766 2.483-32.481 8.951-43.694 16.908-22.08 15.668-37.566 38.697-42.864 63.741-.793 3.749-1.442 7.011-1.442 7.25 0 .239 21.519.435 47.821.435h47.82l1.134-7.25c3.865-24.728 18.172-52.707 35.643-69.708 2.52-2.452 4.582-4.802 4.582-5.221 0-1.053-12.119-4.562-20-5.792-6.221-.97-23.749-1.19-29-.363M27 141.435c0 2.336 3.425 15.648 5.324 20.694 6.03 16.019 13.666 27.687 25.838 39.48 25.958 25.147 64.519 34.62 99.088 24.341 3.713-1.104 6.75-2.269 6.75-2.589 0-.32-3.371-4.165-7.49-8.544-8.607-9.149-15.953-19.842-21.515-31.317-4.476-9.235-10.473-28.377-11.512-36.75l-.713-5.75H74.885c-26.337 0-47.885.196-47.885.435m124 .905c0 2.843 3.95 16.524 6.975 24.16 1.743 4.4 5.261 11.375 7.816 15.5 4.439 7.165 19.64 24.09 23.484 26.147 3.655 1.956 22.697-19.241 29.692-33.051 3.788-7.477 8.992-22.894 9.666-28.634l.642-5.462h-39.137c-32.046 0-39.138.243-39.138 1.34M.112 198.25 0 255l53.25-.075 53.25-.076L96 252.02c-17.645-4.755-29.618-10.496-44.14-21.167-8.477-6.229-24.224-22.613-29.725-30.927C12.546 185.433 4.787 165.969 1.436 148 .42 142.548.206 150.653.112 198.25M255 149.827c0 3.891-6.317 24.054-9.995 31.903-11.175 23.847-30.644 44.915-53.651 58.059-10.801 6.17-16.734 8.561-30.354 12.231l-10.5 2.829 52.75.076L256 255v-53.5c0-29.425-.225-53.5-.5-53.5s-.5.822-.5 1.827" fill="#1976D2" fill-rule="evenodd"/></svg>