<svg xmlns="http://www.w3.org/2000/svg" width="256" height="256"><path fill-opacity=".016" d="M0 128.004v128.004l128.25-.254 128.25-.254.254-127.75L257.008 0H0v128.004m.485.496c0 70.4.119 99.053.265 63.672.146-35.38.146-92.98 0-128C.604 29.153.485 58.1.485 128.5" fill="#121212" fill-rule="evenodd"/><path fill-opacity=".139" d="M109.472 41.525C91.503 45.474 76.961 53.9 63.36 68.244 47.757 84.7 40 104.543 40 128c0 25.338 8.822 45.954 27.227 63.623C84.542 208.245 103.874 216 128 216c24.126 0 43.458-7.755 60.773-24.377C206.913 174.207 216 153.286 216 128.935V119h-36c-32.386 0-36-.161-36-1.606 0-5.899 5.969-21.231 11.183-28.724 6.726-9.664 16.789-18.552 26.242-23.177 3.055-1.495 5.301-3.127 4.992-3.627-.833-1.349-10.221-8.064-15.68-11.215-6.397-3.694-16.499-7.418-24.937-9.193-8.51-1.79-28.039-1.754-36.328.067m4.028 17.897c-15.136 3.489-25.156 9.272-36.187 20.885-9.875 10.396-14.482 18.932-17.782 32.943L58.177 119l32.662-.002 32.661-.001 2.611-10.749c4.07-16.755 10.721-29.191 21.578-40.347l5.449-5.599-6.319-1.806c-8.255-2.359-25.353-2.91-33.319-1.074M59 139.448c0 4.298 4.822 17.836 8.724 24.494 4.836 8.251 16.083 19.498 24.334 24.334 3.543 2.076 10.042 4.972 14.442 6.434 6.88 2.287 9.75 2.668 20.5 2.724 9.322.049 14.238-.413 19.336-1.818l6.836-1.885-5.466-5.615c-10.874-11.174-17.523-23.6-21.595-40.364l-2.611-10.749-32.25-.001L59 137v2.448m85-.842c0 .883.715 4.37 1.589 7.75 3.16 12.223 12.292 26.925 21.386 34.433l3.984 3.289 6.307-6.307c9.875-9.875 17.456-24.067 19.251-36.038l.71-4.733h-26.613c-23.769 0-26.614.172-26.614 1.606" fill="#121212" fill-rule="evenodd"/><path fill-opacity=".454" d="M113.66 40.98c-29.214 5.31-53.803 24.209-65.735 50.526-5.897 13.005-7.389 20.522-7.342 36.994.038 13.436.328 15.938 2.788 24 8.942 29.302 30.874 51.229 60.129 60.116 8.144 2.475 10.474 2.735 24.5 2.735s16.356-.26 24.5-2.735c29.3-8.901 51.491-31.122 60.034-60.116 2.152-7.303 2.682-11.263 2.809-21l.157-12-36.088-.5-36.088-.5 1.249-6.124c3.772-18.481 18.652-37.908 35.582-46.454 3.289-1.66 5.837-3.427 5.662-3.926-.666-1.905-11.654-9.308-19.317-13.015-12.351-5.975-21.051-8.058-35.5-8.499-6.875-.21-14.678.014-17.34.498m-3.483 18.992c-26.253 7.081-46.266 28.682-51.689 55.792l-.653 3.263 33.32-.263 33.321-.264.667-4.669c2.298-16.069 10.63-32.991 22.623-45.945l5.347-5.775-5.307-1.68c-8.467-2.682-28.485-2.926-37.629-.459m-51.594 80.764c1.304 7.226 6.329 19.362 10.803 26.092 8.345 12.554 20.17 21.846 35.006 27.511 7.739 2.955 8.79 3.098 23.108 3.129 12.044.026 16.04-.33 20.275-1.807l5.276-1.839-5.316-5.741c-11.961-12.919-20.296-29.859-22.592-45.912l-.667-4.669-33.286-.264-33.286-.263.679 3.763m85.63 1.514c2.162 12.067 9.082 24.837 18.974 35.01 7.856 8.08 7.545 8.113 16.619-1.789 8.6-9.386 14.42-21.18 17.626-35.721l.606-2.75h-54.765l.94 5.25" fill="#121212" fill-rule="evenodd"/><path fill-opacity=".983" d="M116.061 41.024C81.025 45.9 52.181 71.712 42.897 106.5c-3.026 11.335-3.026 31.665 0 43 6.767 25.355 23.23 45.584 46.367 56.973 13.836 6.811 22.473 8.766 38.736 8.766 16.263 0 24.9-1.955 38.736-8.766 28.253-13.908 46.271-40.911 48.791-73.125 1.161-14.84 5.25-13.348-36.594-13.348-32.325 0-35.933-.161-35.933-1.606 0-3.93 3.458-14.594 7.261-22.394 5.335-10.942 18.608-24.717 28.923-30.019 7.684-3.948 7.682-3.96-1.453-10.163-8.194-5.565-18.888-10.444-27.955-12.755-9.194-2.342-24.766-3.284-33.715-2.039m.702 16.941c-7.218 1.319-14.538 3.909-22.263 7.876-9.612 4.937-23.69 19.003-28.683 28.659C61.951 101.977 58 113.661 58 117.619v2.408l33.196-.264 33.196-.263 1.675-8.509c3.037-15.435 11.543-32.013 22.287-43.438 2.559-2.721 4.313-5.267 3.899-5.659-3.383-3.2-25.863-5.689-35.49-3.929M58 138.557c0 6.902 7.38 23.887 14.407 33.159 8.335 10.997 21.455 19.748 36.593 24.41 11.904 3.665 33.974 2.98 42.287-1.313 1.586-.819 1.184-1.616-3.586-7.118-12.264-14.143-20.072-30.149-22.169-45.445l-.72-5.25H91.406C61.833 137 58 137.179 58 138.557m85-.17c0 3.66 4.974 17.874 8.396 23.994 3.668 6.559 16.79 21.619 18.837 21.619 1.999 0 8.805-6.276 13.322-12.285 7.182-9.554 12.184-20.613 14.007-30.965l.661-3.75h-27.612c-22.874 0-27.611.238-27.611 1.387" fill="#121212" fill-rule="evenodd"/></svg>