<svg xmlns="http://www.w3.org/2000/svg" width="256" height="256"><path fill-opacity=".016" d="M0 128.004v128.004l128.25-.254 128.25-.254.254-127.75L257.008 0H0v128.004m.485.496c0 70.4.119 99.053.265 63.672.146-35.38.146-92.98 0-128C.604 29.153.485 58.1.485 128.5" fill="#1976D2" fill-rule="evenodd"/><path fill-opacity=".418" d="M106.437 1.493C52.822 10.942 10.148 53.979 1.496 107.328c-5.203 32.081 1.903 64.678 19.979 91.642 18.358 27.385 43.736 45.22 76.44 53.72 13.107 3.407 37.23 4.299 51.046 1.888 48.897-8.533 88.705-44.186 102.421-91.73 1.373-4.759 2.807-11.397 3.186-14.75.38-3.354 1.082-6.098 1.561-6.098.479 0 .819-6.637.755-14.75-.064-8.112-.3-14.075-.525-13.25-.358 1.313-6.95 1.467-53.01 1.232l-52.602-.267.685-5.233c1.67-12.748 9.23-30.109 18.609-42.732 9.319-12.544 25.315-25.871 37.266-31.049 3.111-1.348 5.518-2.901 5.35-3.451-.524-1.713-11.095-9.781-19.307-14.736-9.818-5.923-22.528-11.143-35.129-14.427C150.117 1.225 145.672.742 131.5.438c-11.744-.253-19.493.074-25.063 1.055M107 27.899c-16.563 3.659-29.608 9.859-42.41 20.158C45.654 63.29 32.525 84.679 27.642 108.25L26.244 115h96.314l1.282-8.25c3.59-23.115 15.246-46.68 32.645-65.998 4.923-5.465 7.005-8.458 6.197-8.91-.668-.374-5.033-1.683-9.699-2.908-12.054-3.165-34.092-3.661-45.983-1.035M.4 128.5c.001 8.25.156 11.492.344 7.204.188-4.287.187-11.037-.002-15-.19-3.962-.343-.454-.342 7.796m27.035 17.75c.38 2.887 2.069 9.408 3.751 14.49 11.485 34.685 42.47 61.481 78.322 67.733 16.407 2.862 39.593 1.221 51.384-3.634l3.392-1.397-8.029-8.667c-13.232-14.282-21.492-28.305-27.752-47.115-1.86-5.588-3.958-13.873-4.663-18.41l-1.282-8.25H26.742l.693 5.25M151 143.888c0 4.06 4.445 18.932 8.006 26.785 4.766 10.513 13.208 22.311 21.915 30.629 4.431 4.234 8.476 7.698 8.987 7.698 1.675 0 12.325-10.348 18.045-17.534 9.437-11.854 18.639-32.291 20.585-45.716l.689-4.75H151v2.888" fill="#1976D2" fill-rule="evenodd"/><path fill-opacity=".637" d="M111.635 1.135C63.909 7.264 22.132 41.47 7.038 86.777 1.968 101.995.556 110.975.556 128c0 28.634 7.559 52.157 24.176 75.237 26.154 36.324 72.752 56.987 116.934 51.85 29.75-3.458 54.034-15.077 75.426-36.087 20.838-20.466 32.783-43.282 36.908-70.5.667-4.4 1.615-9.034 2.107-10.297.491-1.263.893-6.503.893-11.643 0-7.6-.296-9.459-1.582-9.953-.87-.334-24.984-.607-53.588-.607h-52.006l.713-4.25c3.888-23.174 16.777-46.345 33.862-60.877 7.332-6.235 17.961-13.26 24.321-16.073l4.644-2.055-3.432-2.904c-7.077-5.988-21.306-14.787-30.267-18.717-21.318-9.35-45.436-12.891-68.03-9.989M103 28.544c-10.912 2.809-25.655 9.606-34.444 15.881-7.408 5.289-19.842 18.159-25.266 26.152-8.16 12.027-14.511 27.627-16.76 41.173l-.706 4.25h96.918l.685-5.25c3.341-25.64 16.423-52.281 35.305-71.898l6.399-6.648-4.816-1.581c-16.541-5.43-40.869-6.313-57.315-2.079M.37 128c0 5.775.165 8.137.367 5.25.202-2.887.202-7.612 0-10.5S.37 122.225.37 128m26.332 16.75c3.078 20.034 14.306 41.421 29.767 56.698 26.228 25.919 66.332 35.506 102.194 24.429l6.483-2.002-7.444-7.792c-16.893-17.681-27.988-39.29-32.865-64.011L122.652 141H26.126l.576 3.75m123.789-.5c4.746 23.717 14.153 41.557 30.292 57.444 4.641 4.568 8.793 8.306 9.227 8.306 1.79 0 18.045-17.313 22.386-23.843 7.791-11.72 14.026-27.01 16.477-40.407l.869-4.75H149.841l.65 3.25" fill="#1976D2" fill-rule="evenodd"/><path fill-opacity=".962" d="M115.5 1.043c-22.046 2.446-40.36 9.114-59 21.483C4.209 57.223-14.443 127.869 13.734 184.5c9.093 18.276 25.561 37.445 41.523 48.337 14.711 10.037 35.406 18.441 52.075 21.147 10.936 1.775 34.676 1.256 45.745-1 31.933-6.507 61.773-26.061 79.738-52.25 11.084-16.159 19.125-37.002 21.249-55.075.592-5.037 1.495-10.786 2.006-12.775 1.222-4.752 1.186-10.608-.07-11.384-.55-.34-1-1.716-1-3.059V116H149.742l.677-5.099c.957-7.218 5.213-20.191 9.316-28.401 9.77-19.549 26.621-36.611 45.592-46.165l6.894-3.471-2.361-2.526c-3.221-3.448-16.845-12.367-25.36-16.604-20.715-10.307-46.967-15.135-69-12.691m-3 24.995c-13.83 2.118-30.466 8.8-42.885 17.227-13.82 9.377-29.894 29.244-36.5 45.114C29.699 96.584 26 109.728 26 113.66V116H122.909l.603-3.75c4.705-29.273 14.401-49.865 33.495-71.137 4.537-5.054 8.056-9.383 7.821-9.619-.236-.235-5.131-1.607-10.878-3.048-11.664-2.925-30.81-4.037-41.45-2.408M.286 127.5c.008 2.75.202 3.756.432 2.236.229-1.52.223-3.77-.014-5-.237-1.23-.425.014-.418 2.764m26.191 13.537C24.702 143.91 30.38 162.963 36.599 175c18.81 36.403 56.339 57.851 97.401 55.666 9.57-.509 21.06-2.773 28.327-5.582l2.827-1.093-7.136-7.745c-12.843-13.942-22.774-30.462-28.647-47.656-1.817-5.319-6.371-25.434-6.371-28.141 0-1.011-95.895-.428-96.523.588m123.94 4.05c1.58 11.913 8.524 28.952 16.876 41.413 4.013 5.987 20.788 23.5 22.51 23.5 1.799 0 14.059-12.097 19.48-19.222 3.047-4.003 7.131-10.203 9.077-13.778 4.32-7.938 10.384-25.871 10.82-32l.32-4.5-39.88-.262-39.881-.261.678 5.11" fill="#1976D2" fill-rule="evenodd"/></svg>