<svg xmlns="http://www.w3.org/2000/svg" width="256" height="256"><path fill-opacity=".016" d="M0 128.004v128.004l128.25-.254 128.25-.254.254-127.75L257.008 0H0v128.004m.485.496c0 70.4.119 99.053.265 63.672.146-35.38.146-92.98 0-128C.604 29.153.485 58.1.485 128.5" fill="#121212" fill-rule="evenodd"/><path fill-opacity=".167" d="M113.5 24.038c-10.628 1.656-23.531 5.89-33.387 10.955C46.886 52.069 25.645 84.8 23.34 122.479c-2.607 42.597 23.577 84.958 62.842 101.666 14.29 6.081 24.624 8.11 41.818 8.208 13.902.079 16.531-.192 25.5-2.627 30.147-8.185 54.629-28.039 68.1-55.226 7.613-15.364 10.502-27.216 10.726-44l.174-13-42.75-.261-42.75-.26v-2.243c0-3.562 3.664-15.422 6.905-22.346 7.672-16.395 20.475-29.578 37.35-38.458l6.87-3.615-3.743-3.286c-9.63-8.456-26.343-16.87-40.882-20.583-11.269-2.877-29.825-3.996-40-2.41m1.5 21.655C81.045 51.4 53.597 77.498 46.563 110.761l-1.324 6.262 39.119-.262 39.118-.261.655-4.581c2.775-19.41 12.625-39.633 26.881-55.191l6.153-6.715-2.809-1.068c-8.583-3.263-29.171-4.965-39.356-3.252m-69 95.565c0 1.255.911 5.571 2.025 9.591 6.345 22.894 22.873 42.128 45.284 52.697 10.267 4.841 17.583 6.547 30.691 7.157 11.394.53 23.256-.891 30.374-3.638l2.874-1.11-4.922-5.227c-14.445-15.344-23.118-31.932-27.161-51.949l-1.875-9.279-38.645-.262L46 138.977v2.281m101.449 2.251c1.54 10.27 6.968 23.011 14.056 32.991 4.304 6.061 15.581 17.5 17.252 17.5 1.364 0 14.444-13.867 17.921-19 6.116-9.029 11.468-22.121 12.873-31.491l.676-4.509h-63.454l.676 4.509" fill="#121212" fill-rule="evenodd"/><path fill-opacity=".345" d="M117 24.094c-17.153 1.663-37.386 9.535-51.135 19.894-9.512 7.166-21.58 20.389-27.257 29.863C28.569 90.606 23.747 108.174 23.747 128c0 19.791 4.774 37.215 14.861 54.242 6.705 11.319 23.831 28.445 35.15 35.15C91.162 227.702 107.364 232 128.83 232c15.512 0 26.61-2.167 40.085-7.829 22.53-9.466 44.07-30.424 54.176-52.711 6.368-14.045 11.051-38.362 9.447-49.058l-.661-4.402h-42.938c-23.617 0-42.939-.249-42.939-.553 0-.304.724-3.736 1.609-7.626 3.464-15.229 11.32-29.496 22.486-40.837 5.942-6.035 17.707-14.417 23.748-16.919 1.736-.719 3.157-1.672 3.157-2.118 0-1.565-14.979-11.727-23.226-15.756-11.228-5.485-23.698-8.954-36.586-10.176-5.879-.557-10.913-.953-11.188-.879-.275.074-4.325.505-9 .958m-10.5 23.212c-16.207 4.608-26.784 11.021-38.615 23.413-4.188 4.387-9.532 11.204-11.876 15.149-4.417 7.435-9.341 20.496-10.511 27.882l-.674 4.25H124v-2.872c0-5.297 4.825-21.959 8.839-30.525 4.964-10.593 9.224-17.044 17.572-26.608 3.599-4.122 6.553-7.77 6.566-8.106.013-.336-2.565-1.398-5.727-2.361-4.083-1.244-10.243-1.859-21.25-2.124-13.801-.331-16.377-.123-23.5 1.902M45.565 142.75c1.165 6.659 5.467 18.581 9.113 25.25 16.152 29.544 49.811 47.136 82.374 43.053 8.885-1.114 19.948-3.888 19.948-5.001 0-.376-2.813-3.81-6.25-7.629-13.801-15.336-22.28-32.496-25.781-52.173L123.68 139H44.909l.656 3.75m101.074-.5c1.155 6.369 6.527 21.296 9.591 26.651 5.812 10.159 19.153 24.96 22.588 25.061 2.389.069 15.592-14.554 20.39-22.583 4.348-7.277 9.747-21.378 11.153-29.129l.589-3.25h-64.9l.589 3.25" fill="#121212" fill-rule="evenodd"/><path fill-opacity=".985" d="M109.5 25.402C59.509 35.049 24 77.659 24 128c0 48.781 32.864 89.997 81.096 101.703 11.618 2.82 36.657 2.547 47.904-.522 30.816-8.409 54.532-27.46 68.018-54.637 6.927-13.961 10.064-26.629 10.721-43.294l.522-13.25H189.13c-41.213 0-43.13-.082-43.13-1.84 0-1.012.868-5.236 1.93-9.386 3.542-13.85 12.819-29.545 23.325-39.463 6.068-5.729 19.722-15.016 23.452-15.952 2.314-.581 2.332-.659.589-2.604-2.988-3.336-16.163-11.824-23.902-15.399-13.091-6.049-24.062-8.469-40.394-8.912-9.615-.261-16.858.062-21.5.958m4.547 19.672c-29.23 5.189-55.622 27.595-65.185 55.338-1.573 4.566-3.147 10.39-3.497 12.944L44.728 118H123.819l1.219-7.25c3.345-19.908 12.946-39.108 27.147-54.289 3.352-3.583 5.913-6.697 5.69-6.919-.222-.223-3.773-1.372-7.89-2.555-8.618-2.477-27.194-3.465-35.938-1.913m-68.698 97.454c.978 7.14 5.384 19.296 9.957 27.472 5.702 10.196 20.498 24.992 30.694 30.694 17.102 9.565 36.501 13.185 55 10.265 5.732-.905 15.81-3.63 16.89-4.567.214-.186-2.353-3.27-5.705-6.853-14.076-15.048-23.661-34.379-27.242-54.948L123.795 138H44.728l.621 4.528M146 139.84c0 7.43 7.306 25.86 14.334 36.16 3.661 5.365 12.066 14.436 15.915 17.177l2.754 1.962 6.116-5.82c11.273-10.727 20.688-26.78 24.271-41.383 2.708-11.04 6.14-9.936-30.89-9.936-30.892 0-32.5.091-32.5 1.84" fill="#121212" fill-rule="evenodd"/></svg>