<svg xmlns="http://www.w3.org/2000/svg" width="256" height="256"><path fill-opacity=".016" d="M0 128.004v128.004l128.25-.254 128.25-.254.254-127.75L257.008 0H0v128.004m.485.496c0 70.4.119 99.053.265 63.672.146-35.38.146-92.98 0-128C.604 29.153.485 58.1.485 128.5" fill="#121212" fill-rule="evenodd"/><path fill-opacity=".37" d="M0 128.004v128.004l128.25-.254 128.25-.254.254-127.75L257.008 0H0v128.004m.485.496c0 70.4.119 99.053.265 63.672.146-35.38.146-92.98 0-128C.604 29.153.485 58.1.485 128.5M112.5 55.417c-28.449 6.58-49.525 26.813-56.553 54.289-2.651 10.366-2.641 26.262.024 36.68 6.527 25.521 25.027 44.653 51.029 52.772 6.456 2.016 9.449 2.329 21.5 2.247 12.438-.085 14.893-.398 22-2.805 11.705-3.965 20.868-9.769 30.12-19.079 6.586-6.628 8.992-9.95 12.744-17.596 5.659-11.534 7.52-18.507 8.322-31.175l.616-9.75H140.05l.601-3.25c1.176-6.358 4.574-15.33 7.858-20.75 4.658-7.687 14.208-16.84 22.044-21.129l6.631-3.629-5.842-4.187c-7.156-5.128-15.88-9.349-23.842-11.536-8.262-2.27-27.352-2.871-35-1.102m1.101 14.177c-13.858 3.353-28.438 13.989-36.776 26.828C73.374 101.735 68 115.82 68 119.552c0 1.23 4.274 1.448 28.412 1.448h28.412l.653-4.25c2.162-14.085 9.404-28.886 19.394-39.638 2.242-2.413 3.858-4.741 3.592-5.172-.947-1.532-14.467-3.939-21.66-3.857-4.017.046-9.957.726-13.202 1.511M68.475 138.75c3.868 20.806 19.482 38.898 39.644 45.936 11.679 4.077 28.101 4.246 38.183.394l2.803-1.07-5.982-7.107c-9.125-10.84-15.676-24.82-17.646-37.653l-.653-4.25H67.777l.698 3.75m72.19-3c-.25.412.402 4.104 1.447 8.202 2.362 9.264 8.062 19.005 15.433 26.375 6.554 6.554 6.629 6.545 14.13-1.661 5.541-6.063 11.33-16.435 13.729-24.598 2.896-9.856 4.75-9.068-21.345-9.068-12.618 0-23.145.338-23.394.75" fill="#121212" fill-rule="evenodd"/><path fill-opacity=".545" d="M0 128.004v128.004l128.25-.254 128.25-.254.254-127.75L257.008 0H0v128.004m.485.496c0 70.4.119 99.053.265 63.672.146-35.38.146-92.98 0-128C.604 29.153.485 58.1.485 128.5m109.323-72.953C89.57 60.455 70.681 75.64 61.465 94.411c-6.35 12.933-7.928 19.723-7.922 34.089.007 13.952 1.974 21.813 8.76 35 6.242 12.13 19.04 24.556 31.697 30.777 5.225 2.568 12.425 5.349 16 6.181 9.768 2.273 27.787 2.028 36.913-.501C179.31 190.979 202 161.892 202 129.34V121h-61v-2.532c0-3.701 3.703-14.143 7.258-20.468 4.221-7.508 15.882-18.814 23.152-22.447l5.898-2.947-3.749-3.241c-5.569-4.815-18.452-11.164-27.182-13.397-9.204-2.354-27.72-2.567-36.569-.421m8.767 13.459C111.214 70.319 104.15 72.81 98 76.262 90.648 80.39 79.242 92.089 75.345 99.5 71.969 105.922 69 114.897 69 118.682V121h56v-2.606c0-4.067 2.874-14.159 5.986-21.024 3.418-7.537 7.933-14.264 13.801-20.558l4.37-4.688-5.008-1.487c-6.494-1.929-19.317-2.746-25.574-1.631M69.026 138.25c.014 1.238 1.032 5.201 2.261 8.808 10.238 30.029 42.142 46.867 72.604 38.317l5.39-1.513-4.042-4.181c-9.516-9.841-16.97-24.046-19.434-37.031l-1.261-6.65H69l.026 2.25m71.995 0c.03 3.229 4.33 14.966 7.404 20.212 3.306 5.642 13.327 16.538 15.209 16.538 2.05 0 9.768-8.026 13.842-14.396 4.044-6.321 7.319-14.182 8.465-20.32l.801-4.284H141l.021 2.25" fill="#121212" fill-rule="evenodd"/><path fill-opacity=".764" d="M0 128.004v128.004l128.25-.254 128.25-.254.254-127.75L257.008 0H0v128.004m.485.496c0 70.4.119 99.053.265 63.672.146-35.38.146-92.98 0-128C.604 29.153.485 58.1.485 128.5M113 54.488C63.997 65.503 38.939 117.017 60.946 161.5c19.368 39.15 67.955 53.106 105.673 30.355 16.413-9.901 29.244-27.363 33.693-45.855 2.055-8.544 3.066-19.001 2.213-22.887l-.684-3.113h-61l.696-3.25c3.9-18.222 14.664-32.472 31.471-41.663l5.195-2.841-6.458-4.609c-7.65-5.459-16.954-9.944-25.245-12.172-8.529-2.291-25.459-2.785-33.5-.977m.5 15.877c-20.353 5.278-36.866 21.283-42.888 41.567-.886 2.987-1.612 6.024-1.612 6.75 0 1.059 5.401 1.318 27.481 1.318h27.481l.608-2.75c4.124-18.66 7.984-26.698 19.177-39.935l4.385-5.185-3.816-1.189c-5.652-1.762-24.86-2.121-30.816-.576M69 137.318c0 3.008 3.431 12.64 6.832 19.182 7.306 14.053 23.302 26.088 39.256 29.538 6.388 1.381 23.37.814 29.16-.974l3.748-1.157-6.441-7.914c-9.136-11.224-13.207-20.15-16.985-37.243l-.608-2.75H96.481c-22.08 0-27.481.259-27.481 1.318m72-.712c0 2.371 3.599 13.653 5.685 17.823 3.34 6.672 9.595 14.785 13.98 18.129l3.52 2.685 4.985-4.872c5.962-5.825 11.925-15.557 14.762-24.089C187.642 135.126 189.378 136 163.5 136c-12.375 0-22.5.273-22.5.606" fill="#121212" fill-rule="evenodd"/></svg>