<svg viewBox="0 0 140 118" fill="none" xmlns="http://www.w3.org/2000/svg">
<path d="M96.6425 42.9843C92.152 38.5108 86.0781 36 79.7471 36C73.4161 36 67.3422 38.5108 62.8517 42.9843L56.7646 49.0997L50.76 43.0808C46.2706 38.6051 40.1963 36.0927 33.8646 36.0927C27.5328 36.0927 21.4585 38.6051 16.9692 43.0808V43.0808C12.5055 47.5807 10 53.6685 10 60.0142C10 66.3599 12.5055 72.4477 16.9692 76.9476L37.8432 97.8667C38.4322 98.6267 39.0675 99.3494 39.7454 100.031V100.031C44.2346 104.505 50.3079 107.017 56.6386 107.017C62.9692 107.017 69.0425 104.505 73.5317 100.031L96.6425 76.874C101.111 72.372 103.619 66.2798 103.619 59.9292C103.619 53.5786 101.111 47.4863 96.6425 42.9843V42.9843Z" fill="url(#paint0_linear_3202_67009)"/>
<path d="M89.2671 16.9331L39.8948 66.4231C30.5651 75.775 30.5651 90.9374 39.8948 100.289L39.898 100.293C49.2277 109.644 64.3541 109.644 73.6837 100.293L123.056 50.8025C132.386 41.4506 132.386 26.2882 123.056 16.9363L123.053 16.9331C113.723 7.58118 98.5968 7.58117 89.2671 16.9331Z" fill="url(#paint1_linear_3202_67009)"/>
<path d="M75.7826 30.468L39.9387 66.3972C30.6091 75.7491 30.6091 90.9115 39.9387 100.263L39.942 100.267C49.2716 109.619 64.398 109.619 73.7277 100.267L109.571 64.3374C118.901 54.9855 118.901 39.8231 109.571 30.4712L109.568 30.468C100.239 21.1161 85.1122 21.1161 75.7826 30.468Z" fill="url(#paint2_linear_3202_67009)"/>
<path d="M73.6065 66.3982L50.6819 43.4189C41.3522 34.067 26.2259 34.067 16.8962 43.4189L16.893 43.4222C7.56333 52.7741 7.56332 67.9365 16.893 77.2884L39.8176 100.268C49.1472 109.62 64.2736 109.62 73.6033 100.268L73.6065 100.264C82.9362 90.9125 82.9362 75.7501 73.6065 66.3982Z" fill="url(#paint3_linear_3202_67009)"/>
<path d="M62.951 43.3274L39.9324 66.4009C30.6027 75.7528 30.6027 90.9152 39.9324 100.267L39.9356 100.27C49.2653 109.622 64.3917 109.622 73.7213 100.27L96.7399 77.1969C106.07 67.845 106.07 52.6826 96.7399 43.3307L96.7367 43.3274C87.407 33.9755 72.2807 33.9755 62.951 43.3274Z" fill="url(#paint4_linear_3202_67009)"/>
<path d="M56.8053 49.3359L22.8861 83.3084C22.8861 83.3084 17.4315 78.4289 14.1084 73.9492C7.76 65.3665 8.55297 51.7849 16.9961 43.317C24.8846 35.4097 36.9901 33.774 47.4087 40.5051C50.5577 42.5359 56.8053 49.3359 56.8053 49.3359Z" fill="url(#paint5_linear_3202_67009)"/>
<defs>
<linearGradient id="paint0_linear_3202_67009" x1="28.3825" y1="31.6265" x2="85.2083" y2="88.3171" gradientUnits="userSpaceOnUse">
<stop stop-color="#1C4DBF"/>
<stop offset="0.48" stop-color="#1C4CBD"/>
<stop offset="0.68" stop-color="#1B49B6"/>
<stop offset="0.83" stop-color="#1944A9"/>
<stop offset="0.95" stop-color="#163D98"/>
<stop offset="1" stop-color="#153A8F"/>
</linearGradient>
<linearGradient id="paint1_linear_3202_67009" x1="64.5793" y1="41.6756" x2="98.446" y2="75.4663" gradientUnits="userSpaceOnUse">
<stop stop-color="#40ED99"/>
<stop offset="0.45" stop-color="#3FEB98"/>
<stop offset="0.65" stop-color="#3DE493"/>
<stop offset="0.79" stop-color="#3AD78B"/>
<stop offset="0.91" stop-color="#35C680"/>
<stop offset="1" stop-color="#30B273"/>
</linearGradient>
<linearGradient id="paint2_linear_3202_67009" x1="57.8647" y1="48.4343" x2="91.7313" y2="82.2204" gradientUnits="userSpaceOnUse">
<stop stop-color="#2667FF"/>
<stop offset="0.45" stop-color="#2666FD"/>
<stop offset="0.63" stop-color="#2563F6"/>
<stop offset="0.78" stop-color="#235EE9"/>
<stop offset="0.89" stop-color="#2057D8"/>
<stop offset="0.99" stop-color="#1C4EC1"/>
<stop offset="1" stop-color="#1C4DBF"/>
</linearGradient>
<linearGradient id="paint3_linear_3202_67009" x1="60.6604" y1="55.6602" x2="26.6501" y2="89.5841" gradientUnits="userSpaceOnUse">
<stop stop-color="#1C4DBF" stop-opacity="0"/>
<stop offset="0.2" stop-color="#1B4AB7" stop-opacity="0.17"/>
<stop offset="0.61" stop-color="#1841A1" stop-opacity="0.61"/>
<stop offset="0.94" stop-color="#153A8F"/>
</linearGradient>
<linearGradient id="paint4_linear_3202_67009" x1="51.6623" y1="55.607" x2="85.6726" y2="89.5308" gradientUnits="userSpaceOnUse">
<stop stop-color="#1C4DBF" stop-opacity="0"/>
<stop offset="0.17" stop-color="#1C4CBE" stop-opacity="0.03"/>
<stop offset="0.34" stop-color="#1B4BBA" stop-opacity="0.11"/>
<stop offset="0.5" stop-color="#1A48B3" stop-opacity="0.25"/>
<stop offset="0.67" stop-color="#1945AA" stop-opacity="0.45"/>
<stop offset="0.83" stop-color="#17409E" stop-opacity="0.7"/>
<stop offset="1" stop-color="#153A8F"/>
</linearGradient>
<linearGradient id="paint5_linear_3202_67009" x1="16.9411" y1="43.3722" x2="39.8956" y2="66.2721" gradientUnits="userSpaceOnUse">
<stop stop-color="#1C4DBF"/>
<stop offset="0.72" stop-color="#17409D"/>
<stop offset="1" stop-color="#153A8F"/>
</linearGradient>
</defs>
</svg>
