<svg width="13" height="18" viewBox="0 0 13 18" fill="none" xmlns="http://www.w3.org/2000/svg">
<g clip-path="url(#clip0_1416_25022)">
<path d="M3.81836 17.8341C5.47436 17.8341 6.81836 16.5308 6.81836 14.925V12.0159H3.81836C2.16236 12.0159 0.818359 13.3191 0.818359 14.925C0.818359 16.5308 2.16236 17.8341 3.81836 17.8341Z" fill="#0ACF83"/>
<path d="M0.818359 9.1066C0.818359 7.50078 2.16236 6.19751 3.81836 6.19751H6.81836V12.0157H3.81836C2.16236 12.0157 0.818359 10.7124 0.818359 9.1066Z" fill="#A259FF"/>
<path d="M0.818359 3.28849C0.818359 1.68267 2.16236 0.379395 3.81836 0.379395H6.81836V6.19758H3.81836C2.16236 6.19758 0.818359 4.8943 0.818359 3.28849Z" fill="#F24E1E"/>
<path d="M6.81836 0.379395H9.81836C11.4744 0.379395 12.8184 1.68267 12.8184 3.28849C12.8184 4.8943 11.4744 6.19758 9.81836 6.19758H6.81836V0.379395Z" fill="#FF7262"/>
<path d="M12.8184 9.1066C12.8184 10.7124 11.4744 12.0157 9.81836 12.0157C8.16236 12.0157 6.81836 10.7124 6.81836 9.1066C6.81836 7.50078 8.16236 6.19751 9.81836 6.19751C11.4744 6.19751 12.8184 7.50078 12.8184 9.1066Z" fill="#1ABCFE"/>
</g>
<defs>
<clipPath id="clip0_1416_25022">
<rect width="12" height="17.4545" fill="white" transform="translate(0.818359 0.379395)"/>
</clipPath>
</defs>
</svg>
