<svg width="16" height="19" viewBox="0 0 16 19" fill="none" xmlns="http://www.w3.org/2000/svg">
<path d="M9.64348 15.918C9.64348 16.2492 9.64929 16.5804 9.64224 16.9112C9.62732 17.6387 9.03086 18.2171 8.30633 18.2134C7.59257 18.2101 6.99943 17.6325 6.98865 16.9145C6.9787 16.2525 6.98285 15.59 6.98699 14.928C6.98823 14.7276 6.95134 14.5475 6.75073 14.4639C6.55094 14.3806 6.39799 14.4779 6.25582 14.622C5.80071 15.0841 5.33938 15.5404 4.87887 15.9974C4.47557 16.3978 3.99807 16.5386 3.45757 16.344C2.92826 16.1535 2.63356 15.7536 2.57677 15.1975C2.53449 14.7843 2.67584 14.4237 2.97096 14.1285C3.43933 13.6598 3.90813 13.1915 4.37899 12.7253C4.48593 12.6193 4.56759 12.5071 4.55184 12.346C4.53194 12.1403 4.37775 12.0082 4.13237 12.007C3.46959 12.0041 2.8064 12.0098 2.14363 12.0041C1.51028 11.9987 0.987186 11.5697 0.850818 10.9561C0.715278 10.3454 1.0133 9.72684 1.57535 9.45606C1.77804 9.35835 1.99358 9.32026 2.21741 9.32026C2.80433 9.32109 3.39125 9.32192 3.97818 9.32026C4.36117 9.31902 4.51826 9.09875 4.38728 8.73854C4.11247 7.98126 3.80243 7.23558 3.56037 6.46837C2.64724 3.57714 4.59702 0.492972 7.5992 0.0516073C10.2317 -0.335518 12.7605 1.49826 13.2102 4.11125C13.3723 5.05277 13.279 5.96407 12.9437 6.85342C12.7083 7.47821 12.4658 8.10092 12.2287 8.72529C12.0882 9.09544 12.2428 9.31943 12.639 9.32067C13.2537 9.32233 13.8684 9.31446 14.4827 9.32357C15.1513 9.33351 15.674 9.78895 15.7979 10.451C15.9073 11.0356 15.5687 11.6525 15.0025 11.8981C14.8226 11.9763 14.6344 12.0074 14.4384 12.007C13.81 12.0049 13.1816 12.0094 12.5532 12.0045C12.3584 12.0028 12.1868 12.043 12.1056 12.2326C12.0219 12.4289 12.1077 12.587 12.2536 12.7307C12.7306 13.2002 13.2098 13.6681 13.6732 14.1508C14.3753 14.8824 14.062 16.0848 13.0995 16.3676C12.5992 16.5146 12.1553 16.3937 11.7848 16.0326C11.3106 15.5702 10.8434 15.0998 10.3784 14.6282C10.2375 14.4854 10.0853 14.3835 9.88389 14.4643C9.68162 14.5454 9.64017 14.7243 9.64348 14.9251C9.64887 15.2559 9.64473 15.5871 9.64473 15.9184H9.64348V15.918Z" fill="#287BF1"/>
<path d="M6.878 3.09093C7.43922 3.0901 7.91672 3.29298 8.30137 3.69749C8.40251 3.8039 8.44562 3.80556 8.54758 3.69749C9.27916 2.92283 10.5131 2.88391 11.2899 3.60227C11.5274 3.82212 11.5597 4.07096 11.3765 4.27259C11.1991 4.46802 10.9624 4.46346 10.7175 4.25976C10.017 3.67721 9.04497 4.01216 8.88208 4.89282C8.80332 5.31887 8.99441 5.76023 9.36289 6.00286C9.72806 6.243 10.2126 6.24383 10.574 6.0012C10.6424 5.95524 10.703 5.89769 10.7676 5.84635C10.9633 5.69109 11.2024 5.69978 11.3653 5.86788C11.5344 6.04219 11.5411 6.30138 11.3603 6.48107C10.9537 6.886 10.458 7.08184 9.88308 7.05783C9.34051 7.03505 8.88083 6.82058 8.51567 6.41855C8.43567 6.33078 8.39878 6.35148 8.3279 6.42476C7.76377 7.0069 7.0811 7.20812 6.30682 6.96881C5.53338 6.72949 5.08199 6.17675 4.93526 5.38304C4.71848 4.21132 5.66892 3.09341 6.87758 3.09134L6.878 3.09093Z" fill="#FEFEFE"/>
<path d="M6.88979 3.96875C7.49785 3.97041 7.98778 4.46601 7.98654 5.07838C7.98529 5.6895 7.49163 6.18179 6.88191 6.18013C6.27343 6.17847 5.78392 5.68287 5.78516 5.07051C5.7864 4.45939 6.28006 3.9671 6.8902 3.96875H6.88979Z" fill="#287CF1"/>
</svg>
