<svg width="17" height="19" viewBox="0 0 17 19" fill="none" xmlns="http://www.w3.org/2000/svg">
<path d="M14.7311 3.57271C14.7186 3.48181 14.6392 3.43138 14.5733 3.42589C14.5079 3.4204 13.2265 3.40093 13.2265 3.40093C13.2265 3.40093 12.1548 2.36021 12.0489 2.25434C11.9431 2.14848 11.7363 2.18044 11.6559 2.20441C11.6549 2.20491 11.4547 2.26683 11.1176 2.3712C11.0612 2.18843 10.9782 1.9637 10.8599 1.73798C10.4784 1.00989 9.91958 0.624864 9.2444 0.623868C9.24341 0.623868 9.2429 0.623868 9.24191 0.623868C9.19496 0.623868 9.14852 0.628362 9.1016 0.632356C9.08162 0.608386 9.06164 0.584917 9.04067 0.561942C8.74652 0.247334 8.36951 0.094024 7.91756 0.107507C7.04564 0.132476 6.17723 0.762196 5.4731 1.88081C4.97771 2.66783 4.60067 3.65662 4.49381 4.42216C3.49254 4.73227 2.79241 4.94899 2.77693 4.954C2.27156 5.11279 2.25558 5.12827 2.18966 5.6047C2.14072 5.96473 0.818359 16.1901 0.818359 16.1901L11.9001 18.1067L16.7031 16.9127C16.7031 16.9127 14.7436 3.66361 14.7311 3.57271ZM10.5628 2.54299C10.3076 2.62189 10.0174 2.71178 9.70283 2.80916C9.69635 2.36771 9.64391 1.75347 9.43817 1.22262C10.0998 1.34797 10.4254 2.09654 10.5628 2.54299ZM9.12305 2.98893C8.54228 3.1687 7.90856 3.36496 7.27286 3.56173C7.45163 2.87707 7.79072 2.19542 8.20721 1.74847C8.36201 1.58218 8.57873 1.39691 8.83541 1.29104C9.07661 1.79441 9.12905 2.50703 9.12305 2.98893ZM7.93502 0.687786C8.13977 0.683293 8.31206 0.728238 8.45939 0.825117C8.22368 0.947466 7.99595 1.12325 7.78223 1.35246C7.2284 1.94673 6.80393 2.86908 6.63464 3.75898C6.10679 3.92227 5.59043 4.08259 5.11502 4.22941C5.41517 2.82863 6.58919 0.726739 7.93502 0.687786Z" fill="#95BF47"/>
<path d="M14.5736 3.42648C14.5082 3.42099 13.2268 3.40152 13.2268 3.40152C13.2268 3.40152 12.1551 2.36081 12.0492 2.25494C12.0098 2.21549 11.9563 2.19501 11.9004 2.18652L11.9009 18.1063L16.7035 16.9128C16.7035 16.9128 14.7439 3.6642 14.7314 3.5733C14.7189 3.4824 14.639 3.43197 14.5736 3.42648Z" fill="#5E8E3E"/>
<path d="M9.23822 5.89583L8.68043 7.98272C8.68043 7.98272 8.0582 7.69958 7.32062 7.74602C6.23894 7.81445 6.22745 8.49659 6.23846 8.66789C6.29738 9.60122 8.75282 9.80498 8.89067 11.9913C8.99903 13.7111 7.97828 14.8877 6.50762 14.9806C4.7423 15.0919 3.77051 14.0507 3.77051 14.0507L4.14455 12.4597C4.14455 12.4597 5.12282 13.1978 5.90585 13.1483C6.41723 13.1159 6.59999 12.6999 6.58151 12.4057C6.50462 11.1883 4.50509 11.2602 4.37876 9.25964C4.27238 7.57625 5.37803 5.87036 7.81748 5.71655C8.75732 5.65613 9.23822 5.89583 9.23822 5.89583Z" fill="white"/>
</svg>
