<svg width="19" height="19" viewBox="0 0 19 19" fill="none" xmlns="http://www.w3.org/2000/svg">
<path d="M9.81836 18.1067C14.7889 18.1067 18.8184 14.0773 18.8184 9.10669C18.8184 4.13613 14.7889 0.106689 9.81836 0.106689C4.8478 0.106689 0.818359 4.13613 0.818359 9.10669C0.818359 14.0773 4.8478 18.1067 9.81836 18.1067Z" fill="#4353FF"/>
<path d="M12.4617 8.03795L11.6461 10.6086C11.6461 10.4117 11.0836 6.14795 11.0836 6.14795C9.7898 6.14795 9.10355 7.06482 8.74356 8.03795L7.74793 10.6142C7.74793 10.4286 7.6073 8.06045 7.6073 8.06045C7.55928 7.5478 7.32492 7.07056 6.94861 6.71913C6.57229 6.3677 6.08016 6.16647 5.56543 6.15357L6.62293 12.6111C7.97293 12.6111 8.70418 11.6942 9.08105 10.7211L9.92481 8.52732C9.92481 8.61732 10.4873 12.6111 10.4873 12.6111C11.0393 12.6104 11.5768 12.4339 12.0218 12.1072C12.4668 11.7805 12.7962 11.3207 12.9623 10.7942L14.8748 6.14795C13.5248 6.14795 12.8161 7.06482 12.4561 8.03795H12.4617Z" fill="white"/>
</svg>
